<mxfile host="app.diagrams.net" modified="2023-05-09T16:43:33.665Z" agent="Mozilla/5.0 (X11; Linux x86_64) AppleWebKit/537.36 (KHTML, like Gecko) Chrome/112.0.0.0 Safari/537.36" etag="UECIkM66XS0dkTX8hWB3" version="21.2.9" type="device">
  <diagram id="mrAVjI0d_bWb_Q6mrn6p" name="Page-1">
    <mxGraphModel dx="295" dy="723" grid="1" gridSize="10" guides="1" tooltips="1" connect="1" arrows="1" fold="1" page="1" pageScale="1" pageWidth="850" pageHeight="1100" math="1" shadow="0">
      <root>
        <mxCell id="0" />
        <mxCell id="1" parent="0" />
        <mxCell id="Bt43okNIhcGlWjT723cL-21" value="" style="rounded=0;whiteSpace=wrap;html=1;fillColor=#fff2cc;strokeColor=default;" parent="1" vertex="1">
          <mxGeometry x="1490" y="660" width="270" height="120" as="geometry" />
        </mxCell>
        <mxCell id="Bt43okNIhcGlWjT723cL-17" value="" style="rounded=0;whiteSpace=wrap;html=1;fillColor=#fff2cc;strokeColor=default;" parent="1" vertex="1">
          <mxGeometry x="1490" y="790" width="270" height="70" as="geometry" />
        </mxCell>
        <mxCell id="iwg94iTVYW8onbJ5SESR-1" value="Tarjeta de desarrollo" style="rounded=0;whiteSpace=wrap;html=1;fillColor=#fff2cc;strokeColor=default;" parent="1" vertex="1">
          <mxGeometry x="300" y="450" width="120" height="60" as="geometry" />
        </mxCell>
        <mxCell id="iwg94iTVYW8onbJ5SESR-6" value="" style="edgeStyle=orthogonalEdgeStyle;rounded=0;orthogonalLoop=1;jettySize=auto;html=1;startArrow=classic;startFill=1;" parent="1" source="iwg94iTVYW8onbJ5SESR-2" target="iwg94iTVYW8onbJ5SESR-1" edge="1">
          <mxGeometry relative="1" as="geometry" />
        </mxCell>
        <mxCell id="iwg94iTVYW8onbJ5SESR-2" value="Cámara" style="rounded=0;whiteSpace=wrap;html=1;fillColor=#fff2cc;strokeColor=default;" parent="1" vertex="1">
          <mxGeometry x="300" y="360" width="120" height="60" as="geometry" />
        </mxCell>
        <mxCell id="iwg94iTVYW8onbJ5SESR-5" value="" style="edgeStyle=orthogonalEdgeStyle;rounded=0;orthogonalLoop=1;jettySize=auto;html=1;" parent="1" source="iwg94iTVYW8onbJ5SESR-3" target="iwg94iTVYW8onbJ5SESR-1" edge="1">
          <mxGeometry relative="1" as="geometry" />
        </mxCell>
        <mxCell id="iwg94iTVYW8onbJ5SESR-3" value="Sensor de movimiento" style="rounded=0;whiteSpace=wrap;html=1;fillColor=#fff2cc;strokeColor=default;" parent="1" vertex="1">
          <mxGeometry x="300" y="540" width="120" height="60" as="geometry" />
        </mxCell>
        <mxCell id="CYQogxWo8IyRnVfrzuj0-6" style="edgeStyle=orthogonalEdgeStyle;rounded=0;orthogonalLoop=1;jettySize=auto;html=1;entryX=0;entryY=0.5;entryDx=0;entryDy=0;fillColor=#fff2cc;strokeColor=default;" parent="1" source="CYQogxWo8IyRnVfrzuj0-3" target="CYQogxWo8IyRnVfrzuj0-4" edge="1">
          <mxGeometry relative="1" as="geometry" />
        </mxCell>
        <mxCell id="CYQogxWo8IyRnVfrzuj0-3" value="Sensor PIR" style="rounded=0;whiteSpace=wrap;html=1;fillColor=#fff2cc;strokeColor=default;" parent="1" vertex="1">
          <mxGeometry x="360" y="770" width="70" height="60" as="geometry" />
        </mxCell>
        <mxCell id="CYQogxWo8IyRnVfrzuj0-7" value="" style="edgeStyle=orthogonalEdgeStyle;rounded=0;orthogonalLoop=1;jettySize=auto;html=1;fillColor=#fff2cc;strokeColor=default;" parent="1" source="CYQogxWo8IyRnVfrzuj0-4" target="CYQogxWo8IyRnVfrzuj0-5" edge="1">
          <mxGeometry relative="1" as="geometry" />
        </mxCell>
        <mxCell id="CYQogxWo8IyRnVfrzuj0-4" value="Amplificador y filtro" style="rounded=0;whiteSpace=wrap;html=1;fillColor=#fff2cc;strokeColor=default;" parent="1" vertex="1">
          <mxGeometry x="460" y="770" width="70" height="60" as="geometry" />
        </mxCell>
        <mxCell id="CYQogxWo8IyRnVfrzuj0-5" value="Comparador de ventanas" style="rounded=0;whiteSpace=wrap;html=1;fillColor=#fff2cc;strokeColor=default;" parent="1" vertex="1">
          <mxGeometry x="560" y="770" width="70" height="60" as="geometry" />
        </mxCell>
        <mxCell id="CYQogxWo8IyRnVfrzuj0-12" value="" style="ellipse;whiteSpace=wrap;html=1;strokeColor=default;fillColor=#ffe6cc;" parent="1" vertex="1">
          <mxGeometry x="650" y="490" width="315" height="210" as="geometry" />
        </mxCell>
        <mxCell id="CYQogxWo8IyRnVfrzuj0-13" value="" style="ellipse;whiteSpace=wrap;html=1;strokeColor=default;fillColor=#dae8fc;" parent="1" vertex="1">
          <mxGeometry x="730" y="520" width="225" height="150" as="geometry" />
        </mxCell>
        <mxCell id="CYQogxWo8IyRnVfrzuj0-14" value="" style="ellipse;whiteSpace=wrap;html=1;strokeColor=default;fillColor=#d5e8d4;" parent="1" vertex="1">
          <mxGeometry x="800" y="547.5" width="142.5" height="95" as="geometry" />
        </mxCell>
        <mxCell id="CYQogxWo8IyRnVfrzuj0-15" value="Aprendizaje&lt;br&gt;Profundo" style="text;html=1;strokeColor=none;fillColor=none;align=center;verticalAlign=middle;whiteSpace=wrap;rounded=0;" parent="1" vertex="1">
          <mxGeometry x="800" y="580" width="70" height="30" as="geometry" />
        </mxCell>
        <mxCell id="CYQogxWo8IyRnVfrzuj0-16" value="Aprendizaje&lt;br&gt;Automático" style="text;html=1;strokeColor=none;fillColor=none;align=center;verticalAlign=middle;whiteSpace=wrap;rounded=0;" parent="1" vertex="1">
          <mxGeometry x="730" y="580" width="70" height="30" as="geometry" />
        </mxCell>
        <mxCell id="CYQogxWo8IyRnVfrzuj0-17" value="Inteligencia&lt;br&gt;Artificial" style="text;html=1;strokeColor=none;fillColor=none;align=center;verticalAlign=middle;whiteSpace=wrap;rounded=0;" parent="1" vertex="1">
          <mxGeometry x="650" y="580" width="70" height="30" as="geometry" />
        </mxCell>
        <mxCell id="CYQogxWo8IyRnVfrzuj0-31" style="rounded=0;orthogonalLoop=1;jettySize=auto;html=1;exitX=1;exitY=0.5;exitDx=0;exitDy=0;entryX=0;entryY=0.5;entryDx=0;entryDy=0;strokeColor=default;" parent="1" source="CYQogxWo8IyRnVfrzuj0-18" target="CYQogxWo8IyRnVfrzuj0-23" edge="1">
          <mxGeometry relative="1" as="geometry" />
        </mxCell>
        <mxCell id="CYQogxWo8IyRnVfrzuj0-33" style="edgeStyle=none;rounded=0;orthogonalLoop=1;jettySize=auto;html=1;exitX=1;exitY=0.5;exitDx=0;exitDy=0;entryX=0;entryY=0.5;entryDx=0;entryDy=0;strokeColor=default;" parent="1" source="CYQogxWo8IyRnVfrzuj0-18" target="CYQogxWo8IyRnVfrzuj0-24" edge="1">
          <mxGeometry relative="1" as="geometry" />
        </mxCell>
        <mxCell id="CYQogxWo8IyRnVfrzuj0-34" style="edgeStyle=none;rounded=0;orthogonalLoop=1;jettySize=auto;html=1;exitX=1;exitY=0.5;exitDx=0;exitDy=0;entryX=0;entryY=0.5;entryDx=0;entryDy=0;strokeColor=default;" parent="1" source="CYQogxWo8IyRnVfrzuj0-18" target="CYQogxWo8IyRnVfrzuj0-25" edge="1">
          <mxGeometry relative="1" as="geometry" />
        </mxCell>
        <mxCell id="CYQogxWo8IyRnVfrzuj0-68" style="edgeStyle=none;rounded=0;orthogonalLoop=1;jettySize=auto;html=1;exitX=1;exitY=0.5;exitDx=0;exitDy=0;entryX=0;entryY=0.5;entryDx=0;entryDy=0;strokeColor=default;" parent="1" source="CYQogxWo8IyRnVfrzuj0-18" target="CYQogxWo8IyRnVfrzuj0-21" edge="1">
          <mxGeometry relative="1" as="geometry" />
        </mxCell>
        <mxCell id="CYQogxWo8IyRnVfrzuj0-18" value="" style="ellipse;whiteSpace=wrap;html=1;aspect=fixed;strokeColor=default;fillColor=#f8cecc;" parent="1" vertex="1">
          <mxGeometry x="660" y="320" width="40" height="40" as="geometry" />
        </mxCell>
        <mxCell id="CYQogxWo8IyRnVfrzuj0-35" style="edgeStyle=none;rounded=0;orthogonalLoop=1;jettySize=auto;html=1;exitX=1;exitY=0.5;exitDx=0;exitDy=0;entryX=0;entryY=0.5;entryDx=0;entryDy=0;strokeColor=default;" parent="1" source="CYQogxWo8IyRnVfrzuj0-19" target="CYQogxWo8IyRnVfrzuj0-23" edge="1">
          <mxGeometry relative="1" as="geometry" />
        </mxCell>
        <mxCell id="CYQogxWo8IyRnVfrzuj0-36" style="edgeStyle=none;rounded=0;orthogonalLoop=1;jettySize=auto;html=1;exitX=1;exitY=0.5;exitDx=0;exitDy=0;entryX=0;entryY=0.5;entryDx=0;entryDy=0;strokeColor=default;" parent="1" source="CYQogxWo8IyRnVfrzuj0-19" target="CYQogxWo8IyRnVfrzuj0-21" edge="1">
          <mxGeometry relative="1" as="geometry" />
        </mxCell>
        <mxCell id="CYQogxWo8IyRnVfrzuj0-37" style="edgeStyle=none;rounded=0;orthogonalLoop=1;jettySize=auto;html=1;exitX=1;exitY=0.5;exitDx=0;exitDy=0;entryX=0;entryY=0.5;entryDx=0;entryDy=0;strokeColor=default;" parent="1" source="CYQogxWo8IyRnVfrzuj0-19" target="CYQogxWo8IyRnVfrzuj0-24" edge="1">
          <mxGeometry relative="1" as="geometry" />
        </mxCell>
        <mxCell id="CYQogxWo8IyRnVfrzuj0-38" style="edgeStyle=none;rounded=0;orthogonalLoop=1;jettySize=auto;html=1;exitX=1;exitY=0.5;exitDx=0;exitDy=0;entryX=0;entryY=0.5;entryDx=0;entryDy=0;strokeColor=default;" parent="1" source="CYQogxWo8IyRnVfrzuj0-19" target="CYQogxWo8IyRnVfrzuj0-25" edge="1">
          <mxGeometry relative="1" as="geometry" />
        </mxCell>
        <mxCell id="CYQogxWo8IyRnVfrzuj0-19" value="" style="ellipse;whiteSpace=wrap;html=1;aspect=fixed;strokeColor=default;fillColor=#f8cecc;" parent="1" vertex="1">
          <mxGeometry x="660" y="260" width="40" height="40" as="geometry" />
        </mxCell>
        <mxCell id="CYQogxWo8IyRnVfrzuj0-39" style="edgeStyle=none;rounded=0;orthogonalLoop=1;jettySize=auto;html=1;exitX=1;exitY=0.5;exitDx=0;exitDy=0;entryX=0;entryY=0.5;entryDx=0;entryDy=0;strokeColor=default;" parent="1" source="CYQogxWo8IyRnVfrzuj0-20" target="CYQogxWo8IyRnVfrzuj0-25" edge="1">
          <mxGeometry relative="1" as="geometry" />
        </mxCell>
        <mxCell id="CYQogxWo8IyRnVfrzuj0-40" style="edgeStyle=none;rounded=0;orthogonalLoop=1;jettySize=auto;html=1;exitX=1;exitY=0.5;exitDx=0;exitDy=0;entryX=0;entryY=0.5;entryDx=0;entryDy=0;strokeColor=default;" parent="1" source="CYQogxWo8IyRnVfrzuj0-20" target="CYQogxWo8IyRnVfrzuj0-24" edge="1">
          <mxGeometry relative="1" as="geometry" />
        </mxCell>
        <mxCell id="CYQogxWo8IyRnVfrzuj0-41" style="edgeStyle=none;rounded=0;orthogonalLoop=1;jettySize=auto;html=1;exitX=1;exitY=0.5;exitDx=0;exitDy=0;entryX=0;entryY=0.5;entryDx=0;entryDy=0;strokeColor=default;" parent="1" source="CYQogxWo8IyRnVfrzuj0-20" target="CYQogxWo8IyRnVfrzuj0-21" edge="1">
          <mxGeometry relative="1" as="geometry" />
        </mxCell>
        <mxCell id="CYQogxWo8IyRnVfrzuj0-42" style="edgeStyle=none;rounded=0;orthogonalLoop=1;jettySize=auto;html=1;exitX=1;exitY=0.5;exitDx=0;exitDy=0;entryX=0;entryY=0.5;entryDx=0;entryDy=0;strokeColor=default;" parent="1" source="CYQogxWo8IyRnVfrzuj0-20" target="CYQogxWo8IyRnVfrzuj0-23" edge="1">
          <mxGeometry relative="1" as="geometry" />
        </mxCell>
        <mxCell id="CYQogxWo8IyRnVfrzuj0-20" value="" style="ellipse;whiteSpace=wrap;html=1;aspect=fixed;strokeColor=default;fillColor=#f8cecc;" parent="1" vertex="1">
          <mxGeometry x="660" y="200" width="40" height="40" as="geometry" />
        </mxCell>
        <mxCell id="CYQogxWo8IyRnVfrzuj0-45" style="edgeStyle=none;rounded=0;orthogonalLoop=1;jettySize=auto;html=1;exitX=1;exitY=0.5;exitDx=0;exitDy=0;entryX=0;entryY=0.5;entryDx=0;entryDy=0;strokeColor=default;" parent="1" source="CYQogxWo8IyRnVfrzuj0-21" target="CYQogxWo8IyRnVfrzuj0-26" edge="1">
          <mxGeometry relative="1" as="geometry" />
        </mxCell>
        <mxCell id="CYQogxWo8IyRnVfrzuj0-49" style="edgeStyle=none;rounded=0;orthogonalLoop=1;jettySize=auto;html=1;exitX=1;exitY=0.5;exitDx=0;exitDy=0;entryX=0;entryY=0.5;entryDx=0;entryDy=0;strokeColor=default;" parent="1" source="CYQogxWo8IyRnVfrzuj0-21" target="CYQogxWo8IyRnVfrzuj0-27" edge="1">
          <mxGeometry relative="1" as="geometry" />
        </mxCell>
        <mxCell id="CYQogxWo8IyRnVfrzuj0-51" style="edgeStyle=none;rounded=0;orthogonalLoop=1;jettySize=auto;html=1;exitX=1;exitY=0.5;exitDx=0;exitDy=0;entryX=0;entryY=0.5;entryDx=0;entryDy=0;strokeColor=default;" parent="1" source="CYQogxWo8IyRnVfrzuj0-21" target="CYQogxWo8IyRnVfrzuj0-28" edge="1">
          <mxGeometry relative="1" as="geometry" />
        </mxCell>
        <mxCell id="CYQogxWo8IyRnVfrzuj0-56" style="edgeStyle=none;rounded=0;orthogonalLoop=1;jettySize=auto;html=1;exitX=1;exitY=0.5;exitDx=0;exitDy=0;entryX=0;entryY=0.5;entryDx=0;entryDy=0;strokeColor=default;" parent="1" source="CYQogxWo8IyRnVfrzuj0-21" target="CYQogxWo8IyRnVfrzuj0-29" edge="1">
          <mxGeometry relative="1" as="geometry" />
        </mxCell>
        <mxCell id="CYQogxWo8IyRnVfrzuj0-21" value="" style="ellipse;whiteSpace=wrap;html=1;aspect=fixed;strokeColor=default;fillColor=#dae8fc;" parent="1" vertex="1">
          <mxGeometry x="770" y="290" width="40" height="40" as="geometry" />
        </mxCell>
        <mxCell id="CYQogxWo8IyRnVfrzuj0-46" style="edgeStyle=none;rounded=0;orthogonalLoop=1;jettySize=auto;html=1;exitX=1;exitY=0.5;exitDx=0;exitDy=0;entryX=0;entryY=0.5;entryDx=0;entryDy=0;strokeColor=default;" parent="1" source="CYQogxWo8IyRnVfrzuj0-23" target="CYQogxWo8IyRnVfrzuj0-27" edge="1">
          <mxGeometry relative="1" as="geometry" />
        </mxCell>
        <mxCell id="CYQogxWo8IyRnVfrzuj0-50" style="edgeStyle=none;rounded=0;orthogonalLoop=1;jettySize=auto;html=1;exitX=1;exitY=0.5;exitDx=0;exitDy=0;entryX=0;entryY=0.5;entryDx=0;entryDy=0;strokeColor=default;" parent="1" source="CYQogxWo8IyRnVfrzuj0-23" target="CYQogxWo8IyRnVfrzuj0-26" edge="1">
          <mxGeometry relative="1" as="geometry" />
        </mxCell>
        <mxCell id="CYQogxWo8IyRnVfrzuj0-57" style="edgeStyle=none;rounded=0;orthogonalLoop=1;jettySize=auto;html=1;exitX=1;exitY=0.5;exitDx=0;exitDy=0;entryX=0;entryY=0.5;entryDx=0;entryDy=0;strokeColor=default;" parent="1" source="CYQogxWo8IyRnVfrzuj0-23" target="CYQogxWo8IyRnVfrzuj0-28" edge="1">
          <mxGeometry relative="1" as="geometry" />
        </mxCell>
        <mxCell id="CYQogxWo8IyRnVfrzuj0-58" style="edgeStyle=none;rounded=0;orthogonalLoop=1;jettySize=auto;html=1;exitX=1;exitY=0.5;exitDx=0;exitDy=0;entryX=0;entryY=0.5;entryDx=0;entryDy=0;strokeColor=default;" parent="1" source="CYQogxWo8IyRnVfrzuj0-23" target="CYQogxWo8IyRnVfrzuj0-29" edge="1">
          <mxGeometry relative="1" as="geometry" />
        </mxCell>
        <mxCell id="CYQogxWo8IyRnVfrzuj0-23" value="" style="ellipse;whiteSpace=wrap;html=1;aspect=fixed;strokeColor=default;fillColor=#dae8fc;" parent="1" vertex="1">
          <mxGeometry x="770" y="350" width="40" height="40" as="geometry" />
        </mxCell>
        <mxCell id="CYQogxWo8IyRnVfrzuj0-44" style="edgeStyle=none;rounded=0;orthogonalLoop=1;jettySize=auto;html=1;exitX=1;exitY=0.5;exitDx=0;exitDy=0;entryX=0;entryY=0.5;entryDx=0;entryDy=0;strokeColor=default;" parent="1" source="CYQogxWo8IyRnVfrzuj0-24" target="CYQogxWo8IyRnVfrzuj0-28" edge="1">
          <mxGeometry relative="1" as="geometry" />
        </mxCell>
        <mxCell id="CYQogxWo8IyRnVfrzuj0-48" style="edgeStyle=none;rounded=0;orthogonalLoop=1;jettySize=auto;html=1;exitX=1;exitY=0.5;exitDx=0;exitDy=0;entryX=0;entryY=0.5;entryDx=0;entryDy=0;strokeColor=default;" parent="1" source="CYQogxWo8IyRnVfrzuj0-24" target="CYQogxWo8IyRnVfrzuj0-26" edge="1">
          <mxGeometry relative="1" as="geometry" />
        </mxCell>
        <mxCell id="CYQogxWo8IyRnVfrzuj0-52" style="edgeStyle=none;rounded=0;orthogonalLoop=1;jettySize=auto;html=1;exitX=1;exitY=0.5;exitDx=0;exitDy=0;entryX=0;entryY=0.5;entryDx=0;entryDy=0;strokeColor=default;" parent="1" source="CYQogxWo8IyRnVfrzuj0-24" target="CYQogxWo8IyRnVfrzuj0-29" edge="1">
          <mxGeometry relative="1" as="geometry" />
        </mxCell>
        <mxCell id="CYQogxWo8IyRnVfrzuj0-55" style="edgeStyle=none;rounded=0;orthogonalLoop=1;jettySize=auto;html=1;exitX=1;exitY=0.5;exitDx=0;exitDy=0;entryX=0;entryY=0.5;entryDx=0;entryDy=0;strokeColor=default;" parent="1" source="CYQogxWo8IyRnVfrzuj0-24" target="CYQogxWo8IyRnVfrzuj0-27" edge="1">
          <mxGeometry relative="1" as="geometry" />
        </mxCell>
        <mxCell id="CYQogxWo8IyRnVfrzuj0-24" value="" style="ellipse;whiteSpace=wrap;html=1;aspect=fixed;strokeColor=default;fillColor=#dae8fc;" parent="1" vertex="1">
          <mxGeometry x="770" y="230" width="40" height="40" as="geometry" />
        </mxCell>
        <mxCell id="CYQogxWo8IyRnVfrzuj0-43" style="edgeStyle=none;rounded=0;orthogonalLoop=1;jettySize=auto;html=1;exitX=1;exitY=0.5;exitDx=0;exitDy=0;entryX=0;entryY=0.5;entryDx=0;entryDy=0;strokeColor=default;" parent="1" source="CYQogxWo8IyRnVfrzuj0-25" target="CYQogxWo8IyRnVfrzuj0-29" edge="1">
          <mxGeometry relative="1" as="geometry" />
        </mxCell>
        <mxCell id="CYQogxWo8IyRnVfrzuj0-47" style="edgeStyle=none;rounded=0;orthogonalLoop=1;jettySize=auto;html=1;exitX=1;exitY=0.5;exitDx=0;exitDy=0;entryX=0;entryY=0.5;entryDx=0;entryDy=0;strokeColor=default;" parent="1" source="CYQogxWo8IyRnVfrzuj0-25" target="CYQogxWo8IyRnVfrzuj0-28" edge="1">
          <mxGeometry relative="1" as="geometry" />
        </mxCell>
        <mxCell id="CYQogxWo8IyRnVfrzuj0-53" style="edgeStyle=none;rounded=0;orthogonalLoop=1;jettySize=auto;html=1;exitX=1;exitY=0.5;exitDx=0;exitDy=0;entryX=-0.046;entryY=0.496;entryDx=0;entryDy=0;entryPerimeter=0;strokeColor=default;" parent="1" source="CYQogxWo8IyRnVfrzuj0-25" target="CYQogxWo8IyRnVfrzuj0-26" edge="1">
          <mxGeometry relative="1" as="geometry" />
        </mxCell>
        <mxCell id="CYQogxWo8IyRnVfrzuj0-54" style="edgeStyle=none;rounded=0;orthogonalLoop=1;jettySize=auto;html=1;exitX=1;exitY=0.5;exitDx=0;exitDy=0;entryX=0;entryY=0.5;entryDx=0;entryDy=0;strokeColor=default;" parent="1" source="CYQogxWo8IyRnVfrzuj0-25" target="CYQogxWo8IyRnVfrzuj0-27" edge="1">
          <mxGeometry relative="1" as="geometry" />
        </mxCell>
        <mxCell id="CYQogxWo8IyRnVfrzuj0-25" value="" style="ellipse;whiteSpace=wrap;html=1;aspect=fixed;strokeColor=default;fillColor=#dae8fc;" parent="1" vertex="1">
          <mxGeometry x="770" y="170" width="40" height="40" as="geometry" />
        </mxCell>
        <mxCell id="CYQogxWo8IyRnVfrzuj0-64" style="edgeStyle=none;rounded=0;orthogonalLoop=1;jettySize=auto;html=1;exitX=1;exitY=0.5;exitDx=0;exitDy=0;entryX=0;entryY=0.5;entryDx=0;entryDy=0;strokeColor=default;" parent="1" source="CYQogxWo8IyRnVfrzuj0-26" target="CYQogxWo8IyRnVfrzuj0-30" edge="1">
          <mxGeometry relative="1" as="geometry" />
        </mxCell>
        <mxCell id="CYQogxWo8IyRnVfrzuj0-26" value="" style="ellipse;whiteSpace=wrap;html=1;aspect=fixed;strokeColor=default;fillColor=#f5f5f5;fontColor=#333333;" parent="1" vertex="1">
          <mxGeometry x="880" y="290" width="40" height="40" as="geometry" />
        </mxCell>
        <mxCell id="CYQogxWo8IyRnVfrzuj0-63" style="edgeStyle=none;rounded=0;orthogonalLoop=1;jettySize=auto;html=1;exitX=1;exitY=0.5;exitDx=0;exitDy=0;entryX=0;entryY=0.5;entryDx=0;entryDy=0;strokeColor=default;" parent="1" source="CYQogxWo8IyRnVfrzuj0-27" target="CYQogxWo8IyRnVfrzuj0-30" edge="1">
          <mxGeometry relative="1" as="geometry" />
        </mxCell>
        <mxCell id="CYQogxWo8IyRnVfrzuj0-27" value="" style="ellipse;whiteSpace=wrap;html=1;aspect=fixed;strokeColor=default;fillColor=#f5f5f5;fontColor=#333333;" parent="1" vertex="1">
          <mxGeometry x="880" y="350" width="40" height="40" as="geometry" />
        </mxCell>
        <mxCell id="CYQogxWo8IyRnVfrzuj0-67" style="edgeStyle=none;rounded=0;orthogonalLoop=1;jettySize=auto;html=1;exitX=1;exitY=0.5;exitDx=0;exitDy=0;entryX=0;entryY=0.5;entryDx=0;entryDy=0;strokeColor=default;" parent="1" source="CYQogxWo8IyRnVfrzuj0-28" target="CYQogxWo8IyRnVfrzuj0-30" edge="1">
          <mxGeometry relative="1" as="geometry" />
        </mxCell>
        <mxCell id="CYQogxWo8IyRnVfrzuj0-28" value="" style="ellipse;whiteSpace=wrap;html=1;aspect=fixed;strokeColor=default;fillColor=#f5f5f5;fontColor=#333333;" parent="1" vertex="1">
          <mxGeometry x="880" y="230" width="40" height="40" as="geometry" />
        </mxCell>
        <mxCell id="CYQogxWo8IyRnVfrzuj0-66" style="edgeStyle=none;rounded=0;orthogonalLoop=1;jettySize=auto;html=1;exitX=1;exitY=0.5;exitDx=0;exitDy=0;entryX=0;entryY=0.5;entryDx=0;entryDy=0;strokeColor=default;" parent="1" source="CYQogxWo8IyRnVfrzuj0-29" target="CYQogxWo8IyRnVfrzuj0-30" edge="1">
          <mxGeometry relative="1" as="geometry" />
        </mxCell>
        <mxCell id="CYQogxWo8IyRnVfrzuj0-29" value="" style="ellipse;whiteSpace=wrap;html=1;aspect=fixed;strokeColor=default;fillColor=#f5f5f5;fontColor=#333333;" parent="1" vertex="1">
          <mxGeometry x="880" y="170" width="40" height="40" as="geometry" />
        </mxCell>
        <mxCell id="CYQogxWo8IyRnVfrzuj0-30" value="" style="ellipse;whiteSpace=wrap;html=1;aspect=fixed;strokeColor=default;fillColor=#fff2cc;" parent="1" vertex="1">
          <mxGeometry x="990" y="260" width="40" height="40" as="geometry" />
        </mxCell>
        <mxCell id="CYQogxWo8IyRnVfrzuj0-69" value="Capa de entrada" style="text;html=1;strokeColor=none;fillColor=none;align=center;verticalAlign=middle;whiteSpace=wrap;rounded=0;" parent="1" vertex="1">
          <mxGeometry x="655" y="400" width="60" height="30" as="geometry" />
        </mxCell>
        <mxCell id="CYQogxWo8IyRnVfrzuj0-70" value="Capa oculta 1" style="text;html=1;strokeColor=none;fillColor=none;align=center;verticalAlign=middle;whiteSpace=wrap;rounded=0;" parent="1" vertex="1">
          <mxGeometry x="760" y="400" width="60" height="30" as="geometry" />
        </mxCell>
        <mxCell id="CYQogxWo8IyRnVfrzuj0-71" value="Capa oculta 2" style="text;html=1;strokeColor=none;fillColor=none;align=center;verticalAlign=middle;whiteSpace=wrap;rounded=0;" parent="1" vertex="1">
          <mxGeometry x="870" y="400" width="60" height="30" as="geometry" />
        </mxCell>
        <mxCell id="CYQogxWo8IyRnVfrzuj0-72" value="Capa de salida" style="text;html=1;strokeColor=none;fillColor=none;align=center;verticalAlign=middle;whiteSpace=wrap;rounded=0;" parent="1" vertex="1">
          <mxGeometry x="980" y="400" width="60" height="30" as="geometry" />
        </mxCell>
        <mxCell id="CYQogxWo8IyRnVfrzuj0-83" style="edgeStyle=none;rounded=0;orthogonalLoop=1;jettySize=auto;html=1;exitX=1;exitY=0.5;exitDx=0;exitDy=0;entryX=0;entryY=0.5;entryDx=0;entryDy=0;strokeColor=default;" parent="1" source="CYQogxWo8IyRnVfrzuj0-73" target="CYQogxWo8IyRnVfrzuj0-79" edge="1">
          <mxGeometry relative="1" as="geometry" />
        </mxCell>
        <mxCell id="CYQogxWo8IyRnVfrzuj0-73" value="\[x_3\]" style="ellipse;whiteSpace=wrap;html=1;aspect=fixed;strokeColor=default;fillColor=#dae8fc;" parent="1" vertex="1">
          <mxGeometry x="1010" y="810" width="40" height="40" as="geometry" />
        </mxCell>
        <mxCell id="CYQogxWo8IyRnVfrzuj0-87" style="edgeStyle=none;rounded=0;orthogonalLoop=1;jettySize=auto;html=1;exitX=1;exitY=0.5;exitDx=0;exitDy=0;entryX=0;entryY=0.5;entryDx=0;entryDy=0;strokeColor=default;" parent="1" source="CYQogxWo8IyRnVfrzuj0-74" target="CYQogxWo8IyRnVfrzuj0-79" edge="1">
          <mxGeometry relative="1" as="geometry" />
        </mxCell>
        <mxCell id="CYQogxWo8IyRnVfrzuj0-74" value="\[x_n\]" style="ellipse;whiteSpace=wrap;html=1;aspect=fixed;strokeColor=default;fillColor=#dae8fc;" parent="1" vertex="1">
          <mxGeometry x="1010" y="890" width="40" height="40" as="geometry" />
        </mxCell>
        <mxCell id="CYQogxWo8IyRnVfrzuj0-88" style="edgeStyle=none;rounded=0;orthogonalLoop=1;jettySize=auto;html=1;exitX=1;exitY=0.5;exitDx=0;exitDy=0;strokeColor=default;entryX=0;entryY=0.5;entryDx=0;entryDy=0;" parent="1" source="CYQogxWo8IyRnVfrzuj0-75" target="CYQogxWo8IyRnVfrzuj0-79" edge="1">
          <mxGeometry relative="1" as="geometry">
            <mxPoint x="1100" y="810" as="targetPoint" />
          </mxGeometry>
        </mxCell>
        <mxCell id="CYQogxWo8IyRnVfrzuj0-75" value="\[x_2\]" style="ellipse;whiteSpace=wrap;html=1;aspect=fixed;strokeColor=default;fillColor=#dae8fc;" parent="1" vertex="1">
          <mxGeometry x="1010" y="750" width="40" height="40" as="geometry" />
        </mxCell>
        <mxCell id="CYQogxWo8IyRnVfrzuj0-89" style="edgeStyle=none;rounded=0;orthogonalLoop=1;jettySize=auto;html=1;exitX=1;exitY=0.5;exitDx=0;exitDy=0;entryX=0;entryY=0.5;entryDx=0;entryDy=0;strokeColor=default;" parent="1" source="CYQogxWo8IyRnVfrzuj0-76" target="CYQogxWo8IyRnVfrzuj0-79" edge="1">
          <mxGeometry relative="1" as="geometry" />
        </mxCell>
        <mxCell id="CYQogxWo8IyRnVfrzuj0-76" value="\[x_1\]" style="ellipse;whiteSpace=wrap;html=1;aspect=fixed;strokeColor=default;fillColor=#dae8fc;" parent="1" vertex="1">
          <mxGeometry x="1010" y="690" width="40" height="40" as="geometry" />
        </mxCell>
        <mxCell id="CYQogxWo8IyRnVfrzuj0-78" value="" style="shape=image;html=1;verticalAlign=top;verticalLabelPosition=bottom;labelBackgroundColor=#ffffff;imageAspect=0;aspect=fixed;image=https://cdn1.iconfinder.com/data/icons/ionicons-sharp-vol-1/512/ellipsis-vertical-sharp-128.png;strokeColor=default;" parent="1" vertex="1">
          <mxGeometry x="1019.5" y="860" width="21" height="21" as="geometry" />
        </mxCell>
        <mxCell id="CYQogxWo8IyRnVfrzuj0-79" value="\[\sum\]" style="rounded=0;whiteSpace=wrap;html=1;strokeColor=default;fillColor=#e1d5e7;" parent="1" vertex="1">
          <mxGeometry x="1120" y="815" width="30" height="30" as="geometry" />
        </mxCell>
        <mxCell id="OaOZy3IlskVk_lXHGRTM-2" style="edgeStyle=orthogonalEdgeStyle;rounded=0;orthogonalLoop=1;jettySize=auto;html=1;exitX=1;exitY=0.5;exitDx=0;exitDy=0;entryX=0;entryY=0.5;entryDx=0;entryDy=0;" parent="1" target="OaOZy3IlskVk_lXHGRTM-1" edge="1">
          <mxGeometry relative="1" as="geometry">
            <mxPoint x="1180" y="830" as="sourcePoint" />
          </mxGeometry>
        </mxCell>
        <mxCell id="OaOZy3IlskVk_lXHGRTM-1" value="\[y_1\]" style="ellipse;whiteSpace=wrap;html=1;aspect=fixed;strokeColor=default;fillColor=#f5f5f5;fontColor=#333333;" parent="1" vertex="1">
          <mxGeometry x="1210" y="810" width="40" height="40" as="geometry" />
        </mxCell>
        <mxCell id="OaOZy3IlskVk_lXHGRTM-3" value="\[w_1\]" style="text;html=1;strokeColor=none;fillColor=none;align=center;verticalAlign=middle;whiteSpace=wrap;rounded=0;" parent="1" vertex="1">
          <mxGeometry x="1070" y="730" width="20" height="20" as="geometry" />
        </mxCell>
        <mxCell id="OaOZy3IlskVk_lXHGRTM-6" value="\[w_2\]" style="text;html=1;strokeColor=none;fillColor=none;align=center;verticalAlign=middle;whiteSpace=wrap;rounded=0;" parent="1" vertex="1">
          <mxGeometry x="1070" y="770" width="20" height="20" as="geometry" />
        </mxCell>
        <mxCell id="OaOZy3IlskVk_lXHGRTM-7" value="\[w_3\]" style="text;html=1;strokeColor=none;fillColor=none;align=center;verticalAlign=middle;whiteSpace=wrap;rounded=0;" parent="1" vertex="1">
          <mxGeometry x="1070" y="810" width="20" height="20" as="geometry" />
        </mxCell>
        <mxCell id="OaOZy3IlskVk_lXHGRTM-9" value="\[w_n\]" style="text;html=1;strokeColor=none;fillColor=none;align=center;verticalAlign=middle;whiteSpace=wrap;rounded=0;" parent="1" vertex="1">
          <mxGeometry x="1070" y="850" width="20" height="20" as="geometry" />
        </mxCell>
        <mxCell id="OaOZy3IlskVk_lXHGRTM-11" style="edgeStyle=orthogonalEdgeStyle;rounded=0;orthogonalLoop=1;jettySize=auto;html=1;exitX=0.5;exitY=1;exitDx=0;exitDy=0;entryX=0.5;entryY=0;entryDx=0;entryDy=0;" parent="1" source="OaOZy3IlskVk_lXHGRTM-10" target="CYQogxWo8IyRnVfrzuj0-79" edge="1">
          <mxGeometry relative="1" as="geometry" />
        </mxCell>
        <mxCell id="OaOZy3IlskVk_lXHGRTM-10" value="\[b\]" style="text;html=1;strokeColor=none;fillColor=none;align=center;verticalAlign=middle;whiteSpace=wrap;rounded=0;" parent="1" vertex="1">
          <mxGeometry x="1125" y="765" width="20" height="20" as="geometry" />
        </mxCell>
        <mxCell id="OaOZy3IlskVk_lXHGRTM-12" value="\[f\]" style="rounded=0;whiteSpace=wrap;html=1;strokeColor=default;fillColor=#e1d5e7;" parent="1" vertex="1">
          <mxGeometry x="1150" y="815" width="30" height="30" as="geometry" />
        </mxCell>
        <mxCell id="OaOZy3IlskVk_lXHGRTM-15" value="" style="edgeStyle=orthogonalEdgeStyle;rounded=0;orthogonalLoop=1;jettySize=auto;html=1;" parent="1" source="OaOZy3IlskVk_lXHGRTM-13" edge="1">
          <mxGeometry relative="1" as="geometry">
            <mxPoint x="1180" y="340" as="targetPoint" />
          </mxGeometry>
        </mxCell>
        <mxCell id="OaOZy3IlskVk_lXHGRTM-13" value="" style="shape=image;verticalLabelPosition=bottom;labelBackgroundColor=default;verticalAlign=top;aspect=fixed;imageAspect=0;image=https://www.ngenespanol.com/wp-content/uploads/2018/09/Fotos-Divertidas-del-mundo-animal-P.png;clipPath=inset(0% 13.33% 0% 20.67%);" parent="1" vertex="1">
          <mxGeometry x="1111.73" y="320" width="39.6" height="40" as="geometry" />
        </mxCell>
        <mxCell id="OaOZy3IlskVk_lXHGRTM-20" value="" style="edgeStyle=orthogonalEdgeStyle;rounded=0;orthogonalLoop=1;jettySize=auto;html=1;" parent="1" source="OaOZy3IlskVk_lXHGRTM-18" target="OaOZy3IlskVk_lXHGRTM-19" edge="1">
          <mxGeometry relative="1" as="geometry" />
        </mxCell>
        <mxCell id="OaOZy3IlskVk_lXHGRTM-18" value="" style="sketch=0;outlineConnect=0;fontColor=default;gradientColor=none;fillColor=#000000;strokeColor=none;dashed=0;verticalLabelPosition=bottom;verticalAlign=top;align=center;html=1;fontSize=12;fontStyle=0;aspect=fixed;pointerEvents=1;shape=mxgraph.aws4.camera2;" parent="1" vertex="1">
          <mxGeometry x="1180" y="325" width="37.74" height="30" as="geometry" />
        </mxCell>
        <mxCell id="OaOZy3IlskVk_lXHGRTM-22" value="" style="edgeStyle=orthogonalEdgeStyle;rounded=0;orthogonalLoop=1;jettySize=auto;html=1;" parent="1" source="OaOZy3IlskVk_lXHGRTM-19" target="OaOZy3IlskVk_lXHGRTM-21" edge="1">
          <mxGeometry relative="1" as="geometry" />
        </mxCell>
        <mxCell id="OaOZy3IlskVk_lXHGRTM-19" value="" style="verticalLabelPosition=bottom;html=1;verticalAlign=top;align=center;strokeColor=none;fillColor=#000000;shape=mxgraph.azure.laptop;pointerEvents=1;" parent="1" vertex="1">
          <mxGeometry x="1250" y="325" width="50" height="30" as="geometry" />
        </mxCell>
        <mxCell id="OaOZy3IlskVk_lXHGRTM-21" value="Ardilla" style="text;html=1;strokeColor=default;fillColor=#d5e8d4;align=center;verticalAlign=middle;whiteSpace=wrap;rounded=0;strokeWidth=2;" parent="1" vertex="1">
          <mxGeometry x="1330" y="325" width="60" height="30" as="geometry" />
        </mxCell>
        <mxCell id="OaOZy3IlskVk_lXHGRTM-23" value="" style="edgeStyle=orthogonalEdgeStyle;rounded=0;orthogonalLoop=1;jettySize=auto;html=1;" parent="1" source="OaOZy3IlskVk_lXHGRTM-24" edge="1">
          <mxGeometry relative="1" as="geometry">
            <mxPoint x="1180" y="400" as="targetPoint" />
          </mxGeometry>
        </mxCell>
        <mxCell id="OaOZy3IlskVk_lXHGRTM-24" value="" style="shape=image;verticalLabelPosition=bottom;labelBackgroundColor=default;verticalAlign=top;aspect=fixed;imageAspect=0;image=https://www.ngenespanol.com/wp-content/uploads/2018/09/Fotos-Divertidas-del-mundo-animal-P.png;clipPath=inset(0% 13.33% 0% 20.67%);" parent="1" vertex="1">
          <mxGeometry x="1111.73" y="380" width="39.6" height="40" as="geometry" />
        </mxCell>
        <mxCell id="OaOZy3IlskVk_lXHGRTM-25" value="" style="edgeStyle=orthogonalEdgeStyle;rounded=0;orthogonalLoop=1;jettySize=auto;html=1;" parent="1" edge="1">
          <mxGeometry relative="1" as="geometry">
            <mxPoint x="1217.7271428571428" y="400" as="sourcePoint" />
            <mxPoint x="1250" y="400.0181818181818" as="targetPoint" />
          </mxGeometry>
        </mxCell>
        <mxCell id="OaOZy3IlskVk_lXHGRTM-27" value="" style="edgeStyle=orthogonalEdgeStyle;rounded=0;orthogonalLoop=1;jettySize=auto;html=1;" parent="1" target="OaOZy3IlskVk_lXHGRTM-29" edge="1">
          <mxGeometry relative="1" as="geometry">
            <mxPoint x="1300" y="400.0181818181818" as="sourcePoint" />
          </mxGeometry>
        </mxCell>
        <mxCell id="OaOZy3IlskVk_lXHGRTM-29" value="Ardilla" style="text;html=1;strokeColor=default;fillColor=#d5e8d4;align=center;verticalAlign=middle;whiteSpace=wrap;rounded=0;strokeWidth=2;" parent="1" vertex="1">
          <mxGeometry x="1330" y="385" width="60" height="30" as="geometry" />
        </mxCell>
        <mxCell id="OaOZy3IlskVk_lXHGRTM-31" value="" style="shape=image;html=1;verticalAlign=top;verticalLabelPosition=bottom;labelBackgroundColor=#ffffff;imageAspect=0;aspect=fixed;image=https://cdn4.iconfinder.com/data/icons/ionicons/512/icon-ios7-eye-128.png;strokeColor=#FFFFFF;strokeWidth=2;fillColor=#000000;gradientColor=none;" parent="1" vertex="1">
          <mxGeometry x="1180" y="380" width="40" height="40" as="geometry" />
        </mxCell>
        <mxCell id="OaOZy3IlskVk_lXHGRTM-32" value="" style="shape=mxgraph.signs.healthcare.brain;html=1;pointerEvents=1;fillColor=#000000;strokeColor=none;verticalLabelPosition=bottom;verticalAlign=top;align=center;strokeWidth=2;" parent="1" vertex="1">
          <mxGeometry x="1255" y="380" width="40" height="40" as="geometry" />
        </mxCell>
        <mxCell id="OaOZy3IlskVk_lXHGRTM-34" value="Entrada" style="text;html=1;strokeColor=none;fillColor=none;align=center;verticalAlign=middle;whiteSpace=wrap;rounded=0;strokeWidth=2;" parent="1" vertex="1">
          <mxGeometry x="1101.53" y="420" width="60" height="30" as="geometry" />
        </mxCell>
        <mxCell id="OaOZy3IlskVk_lXHGRTM-35" value="Detector" style="text;html=1;strokeColor=none;fillColor=none;align=center;verticalAlign=middle;whiteSpace=wrap;rounded=0;strokeWidth=2;" parent="1" vertex="1">
          <mxGeometry x="1168.87" y="420" width="60" height="30" as="geometry" />
        </mxCell>
        <mxCell id="OaOZy3IlskVk_lXHGRTM-36" value="Procesador" style="text;html=1;strokeColor=none;fillColor=none;align=center;verticalAlign=middle;whiteSpace=wrap;rounded=0;strokeWidth=2;" parent="1" vertex="1">
          <mxGeometry x="1245" y="420" width="60" height="30" as="geometry" />
        </mxCell>
        <mxCell id="OaOZy3IlskVk_lXHGRTM-38" value="Salida" style="text;html=1;strokeColor=none;fillColor=none;align=center;verticalAlign=middle;whiteSpace=wrap;rounded=0;strokeWidth=2;" parent="1" vertex="1">
          <mxGeometry x="1330" y="420" width="60" height="30" as="geometry" />
        </mxCell>
        <mxCell id="93srFRSfRfwvSrIRxOih-43" style="edgeStyle=orthogonalEdgeStyle;rounded=0;orthogonalLoop=1;jettySize=auto;html=1;exitX=0.5;exitY=1;exitDx=0;exitDy=0;entryX=0;entryY=0.75;entryDx=0;entryDy=0;" parent="1" source="93srFRSfRfwvSrIRxOih-2" target="93srFRSfRfwvSrIRxOih-28" edge="1">
          <mxGeometry relative="1" as="geometry">
            <mxPoint x="290" y="1060" as="targetPoint" />
          </mxGeometry>
        </mxCell>
        <mxCell id="93srFRSfRfwvSrIRxOih-44" style="edgeStyle=orthogonalEdgeStyle;rounded=0;orthogonalLoop=1;jettySize=auto;html=1;exitX=0.5;exitY=1;exitDx=0;exitDy=0;entryX=0;entryY=0.75;entryDx=0;entryDy=0;" parent="1" source="93srFRSfRfwvSrIRxOih-2" target="93srFRSfRfwvSrIRxOih-30" edge="1">
          <mxGeometry relative="1" as="geometry">
            <mxPoint x="290" y="1120" as="targetPoint" />
          </mxGeometry>
        </mxCell>
        <mxCell id="1-3JkJQkq4VCLz2nIE13-4" style="edgeStyle=orthogonalEdgeStyle;rounded=0;orthogonalLoop=1;jettySize=auto;html=1;exitX=1;exitY=0.5;exitDx=0;exitDy=0;entryX=0;entryY=0.5;entryDx=0;entryDy=0;" parent="1" source="93srFRSfRfwvSrIRxOih-2" target="g7NsFF6Sx_r7J6LsosX_-1" edge="1">
          <mxGeometry relative="1" as="geometry">
            <mxPoint x="210" y="975" as="targetPoint" />
          </mxGeometry>
        </mxCell>
        <mxCell id="93srFRSfRfwvSrIRxOih-2" value="" style="shape=image;html=1;verticalAlign=top;verticalLabelPosition=bottom;labelBackgroundColor=#ffffff;imageAspect=0;aspect=fixed;image=https://cdn4.iconfinder.com/data/icons/essentials-74/24/006_-_Image-128.png" parent="1" vertex="1">
          <mxGeometry x="230" y="950" width="50" height="50" as="geometry" />
        </mxCell>
        <mxCell id="1-3JkJQkq4VCLz2nIE13-5" style="edgeStyle=orthogonalEdgeStyle;rounded=0;orthogonalLoop=1;jettySize=auto;html=1;exitX=1;exitY=0.5;exitDx=0;exitDy=0;entryX=0;entryY=0.5;entryDx=0;entryDy=0;fillColor=#fff2cc;strokeColor=default;startArrow=none;" parent="1" source="g7NsFF6Sx_r7J6LsosX_-1" target="93srFRSfRfwvSrIRxOih-4" edge="1">
          <mxGeometry relative="1" as="geometry" />
        </mxCell>
        <mxCell id="93srFRSfRfwvSrIRxOih-36" style="edgeStyle=orthogonalEdgeStyle;rounded=0;orthogonalLoop=1;jettySize=auto;html=1;exitX=1;exitY=0.5;exitDx=0;exitDy=0;entryX=0;entryY=0.5;entryDx=0;entryDy=0;fillColor=#fff2cc;strokeColor=default;" parent="1" source="93srFRSfRfwvSrIRxOih-4" target="93srFRSfRfwvSrIRxOih-32" edge="1">
          <mxGeometry relative="1" as="geometry" />
        </mxCell>
        <mxCell id="93srFRSfRfwvSrIRxOih-4" value="P-Net" style="rounded=0;whiteSpace=wrap;html=1;fillColor=#fff2cc;strokeColor=default;" parent="1" vertex="1">
          <mxGeometry x="410" y="950" width="70" height="50" as="geometry" />
        </mxCell>
        <mxCell id="93srFRSfRfwvSrIRxOih-39" style="edgeStyle=orthogonalEdgeStyle;rounded=0;orthogonalLoop=1;jettySize=auto;html=1;exitX=1;exitY=0.5;exitDx=0;exitDy=0;entryX=0;entryY=0.5;entryDx=0;entryDy=0;fillColor=#fff2cc;strokeColor=default;" parent="1" source="93srFRSfRfwvSrIRxOih-11" target="93srFRSfRfwvSrIRxOih-29" edge="1">
          <mxGeometry relative="1" as="geometry" />
        </mxCell>
        <mxCell id="93srFRSfRfwvSrIRxOih-11" value="R-Net" style="rounded=0;whiteSpace=wrap;html=1;fillColor=#fff2cc;strokeColor=default;" parent="1" vertex="1">
          <mxGeometry x="410" y="1020" width="70" height="50" as="geometry" />
        </mxCell>
        <mxCell id="93srFRSfRfwvSrIRxOih-42" style="edgeStyle=orthogonalEdgeStyle;rounded=0;orthogonalLoop=1;jettySize=auto;html=1;exitX=1;exitY=0.5;exitDx=0;exitDy=0;entryX=0;entryY=0.5;entryDx=0;entryDy=0;fillColor=#fff2cc;strokeColor=default;" parent="1" source="93srFRSfRfwvSrIRxOih-17" target="93srFRSfRfwvSrIRxOih-31" edge="1">
          <mxGeometry relative="1" as="geometry" />
        </mxCell>
        <mxCell id="93srFRSfRfwvSrIRxOih-17" value="O-Net" style="rounded=0;whiteSpace=wrap;html=1;fillColor=#fff2cc;strokeColor=default;" parent="1" vertex="1">
          <mxGeometry x="410" y="1090" width="70" height="50" as="geometry" />
        </mxCell>
        <mxCell id="g7NsFF6Sx_r7J6LsosX_-5" value="" style="edgeStyle=orthogonalEdgeStyle;rounded=0;orthogonalLoop=1;jettySize=auto;html=1;fillColor=#fff2cc;strokeColor=default;" parent="1" source="93srFRSfRfwvSrIRxOih-21" target="93srFRSfRfwvSrIRxOih-22" edge="1">
          <mxGeometry relative="1" as="geometry" />
        </mxCell>
        <mxCell id="93srFRSfRfwvSrIRxOih-21" value="NMS" style="rounded=0;whiteSpace=wrap;html=1;fillColor=#fff2cc;strokeColor=default;" parent="1" vertex="1">
          <mxGeometry x="640" y="1030" width="60" height="40" as="geometry" />
        </mxCell>
        <mxCell id="g7NsFF6Sx_r7J6LsosX_-6" value="" style="edgeStyle=orthogonalEdgeStyle;rounded=0;orthogonalLoop=1;jettySize=auto;html=1;fillColor=#fff2cc;strokeColor=default;" parent="1" source="93srFRSfRfwvSrIRxOih-22" target="93srFRSfRfwvSrIRxOih-23" edge="1">
          <mxGeometry relative="1" as="geometry" />
        </mxCell>
        <mxCell id="93srFRSfRfwvSrIRxOih-22" value="Calibration" style="rounded=0;whiteSpace=wrap;html=1;fillColor=#fff2cc;strokeColor=default;" parent="1" vertex="1">
          <mxGeometry x="730" y="1030" width="60" height="40" as="geometry" />
        </mxCell>
        <mxCell id="g7NsFF6Sx_r7J6LsosX_-19" style="edgeStyle=orthogonalEdgeStyle;rounded=0;orthogonalLoop=1;jettySize=auto;html=1;exitX=1;exitY=0.5;exitDx=0;exitDy=0;strokeColor=default;" parent="1" source="93srFRSfRfwvSrIRxOih-23" edge="1">
          <mxGeometry relative="1" as="geometry">
            <mxPoint x="930" y="1050" as="targetPoint" />
          </mxGeometry>
        </mxCell>
        <mxCell id="93srFRSfRfwvSrIRxOih-23" value="Square &amp;amp; correct" style="rounded=0;whiteSpace=wrap;html=1;fillColor=#fff2cc;strokeColor=default;" parent="1" vertex="1">
          <mxGeometry x="820" y="1030" width="60" height="40" as="geometry" />
        </mxCell>
        <mxCell id="g7NsFF6Sx_r7J6LsosX_-7" value="" style="edgeStyle=orthogonalEdgeStyle;rounded=0;orthogonalLoop=1;jettySize=auto;html=1;fillColor=#fff2cc;strokeColor=default;" parent="1" source="93srFRSfRfwvSrIRxOih-24" target="93srFRSfRfwvSrIRxOih-25" edge="1">
          <mxGeometry relative="1" as="geometry" />
        </mxCell>
        <mxCell id="93srFRSfRfwvSrIRxOih-24" value="Crop" style="rounded=0;whiteSpace=wrap;html=1;fillColor=#fff2cc;strokeColor=default;" parent="1" vertex="1">
          <mxGeometry x="640" y="1100" width="60" height="40" as="geometry" />
        </mxCell>
        <mxCell id="g7NsFF6Sx_r7J6LsosX_-13" style="edgeStyle=orthogonalEdgeStyle;rounded=0;orthogonalLoop=1;jettySize=auto;html=1;exitX=1;exitY=0.5;exitDx=0;exitDy=0;strokeColor=default;" parent="1" source="93srFRSfRfwvSrIRxOih-25" edge="1">
          <mxGeometry relative="1" as="geometry">
            <mxPoint x="820" y="1120" as="targetPoint" />
          </mxGeometry>
        </mxCell>
        <mxCell id="93srFRSfRfwvSrIRxOih-25" value="Resize" style="rounded=0;whiteSpace=wrap;html=1;fillColor=#fff2cc;strokeColor=default;" parent="1" vertex="1">
          <mxGeometry x="730" y="1100" width="60" height="40" as="geometry" />
        </mxCell>
        <mxCell id="93srFRSfRfwvSrIRxOih-38" style="edgeStyle=orthogonalEdgeStyle;rounded=0;orthogonalLoop=1;jettySize=auto;html=1;exitX=1;exitY=0.5;exitDx=0;exitDy=0;entryX=0;entryY=0.5;entryDx=0;entryDy=0;fillColor=#fff2cc;strokeColor=default;" parent="1" source="93srFRSfRfwvSrIRxOih-28" target="93srFRSfRfwvSrIRxOih-11" edge="1">
          <mxGeometry relative="1" as="geometry" />
        </mxCell>
        <mxCell id="93srFRSfRfwvSrIRxOih-28" value="Pre-process" style="rounded=0;whiteSpace=wrap;html=1;fillColor=#fff2cc;strokeColor=default;" parent="1" vertex="1">
          <mxGeometry x="310" y="1020" width="70" height="50" as="geometry" />
        </mxCell>
        <mxCell id="1-3JkJQkq4VCLz2nIE13-3" style="edgeStyle=orthogonalEdgeStyle;rounded=0;orthogonalLoop=1;jettySize=auto;html=1;exitX=1;exitY=0.5;exitDx=0;exitDy=0;entryX=0;entryY=0.25;entryDx=0;entryDy=0;" parent="1" source="93srFRSfRfwvSrIRxOih-29" target="93srFRSfRfwvSrIRxOih-30" edge="1">
          <mxGeometry relative="1" as="geometry">
            <mxPoint x="290" y="1090" as="targetPoint" />
            <Array as="points">
              <mxPoint x="600" y="1045" />
              <mxPoint x="600" y="1080" />
              <mxPoint x="290" y="1080" />
              <mxPoint x="290" y="1103" />
            </Array>
          </mxGeometry>
        </mxCell>
        <mxCell id="93srFRSfRfwvSrIRxOih-29" value="Post-process" style="rounded=0;whiteSpace=wrap;html=1;fillColor=#fff2cc;strokeColor=default;" parent="1" vertex="1">
          <mxGeometry x="510" y="1020" width="70" height="50" as="geometry" />
        </mxCell>
        <mxCell id="93srFRSfRfwvSrIRxOih-41" style="edgeStyle=orthogonalEdgeStyle;rounded=0;orthogonalLoop=1;jettySize=auto;html=1;exitX=1;exitY=0.5;exitDx=0;exitDy=0;entryX=0;entryY=0.5;entryDx=0;entryDy=0;fillColor=#fff2cc;strokeColor=default;" parent="1" source="93srFRSfRfwvSrIRxOih-30" target="93srFRSfRfwvSrIRxOih-17" edge="1">
          <mxGeometry relative="1" as="geometry" />
        </mxCell>
        <mxCell id="93srFRSfRfwvSrIRxOih-30" value="Pre-process" style="rounded=0;whiteSpace=wrap;html=1;fillColor=#fff2cc;strokeColor=default;" parent="1" vertex="1">
          <mxGeometry x="310" y="1090" width="70" height="50" as="geometry" />
        </mxCell>
        <mxCell id="g7NsFF6Sx_r7J6LsosX_-8" style="edgeStyle=orthogonalEdgeStyle;rounded=0;orthogonalLoop=1;jettySize=auto;html=1;exitX=1;exitY=0.5;exitDx=0;exitDy=0;strokeColor=default;" parent="1" source="93srFRSfRfwvSrIRxOih-31" edge="1">
          <mxGeometry relative="1" as="geometry">
            <mxPoint x="610" y="1115.0384615384614" as="targetPoint" />
          </mxGeometry>
        </mxCell>
        <mxCell id="93srFRSfRfwvSrIRxOih-31" value="Post-process" style="rounded=0;whiteSpace=wrap;html=1;fillColor=#fff2cc;strokeColor=default;" parent="1" vertex="1">
          <mxGeometry x="510" y="1090" width="70" height="50" as="geometry" />
        </mxCell>
        <mxCell id="1-3JkJQkq4VCLz2nIE13-6" style="edgeStyle=orthogonalEdgeStyle;rounded=0;orthogonalLoop=1;jettySize=auto;html=1;exitX=1;exitY=0.5;exitDx=0;exitDy=0;entryX=0;entryY=0.25;entryDx=0;entryDy=0;" parent="1" source="93srFRSfRfwvSrIRxOih-32" target="93srFRSfRfwvSrIRxOih-28" edge="1">
          <mxGeometry relative="1" as="geometry">
            <mxPoint x="300" y="1020" as="targetPoint" />
            <Array as="points">
              <mxPoint x="600" y="975" />
              <mxPoint x="600" y="1010" />
              <mxPoint x="290" y="1010" />
              <mxPoint x="290" y="1033" />
            </Array>
          </mxGeometry>
        </mxCell>
        <mxCell id="93srFRSfRfwvSrIRxOih-32" value="Post-process" style="rounded=0;whiteSpace=wrap;html=1;fillColor=#fff2cc;strokeColor=default;" parent="1" vertex="1">
          <mxGeometry x="510" y="950" width="70" height="50" as="geometry" />
        </mxCell>
        <mxCell id="1-3JkJQkq4VCLz2nIE13-9" value="offsets" style="text;html=1;strokeColor=none;fillColor=none;align=center;verticalAlign=middle;whiteSpace=wrap;rounded=0;fontSize=6;" parent="1" vertex="1">
          <mxGeometry x="480" y="950" width="30" height="10" as="geometry" />
        </mxCell>
        <mxCell id="1-3JkJQkq4VCLz2nIE13-11" value="scores" style="text;html=1;strokeColor=none;fillColor=none;align=center;verticalAlign=middle;whiteSpace=wrap;rounded=0;fontSize=6;" parent="1" vertex="1">
          <mxGeometry x="480" y="960" width="30" height="10" as="geometry" />
        </mxCell>
        <mxCell id="1-3JkJQkq4VCLz2nIE13-13" value="offsets" style="text;html=1;strokeColor=none;fillColor=none;align=center;verticalAlign=middle;whiteSpace=wrap;rounded=0;fontSize=6;" parent="1" vertex="1">
          <mxGeometry x="480" y="1020" width="30" height="10" as="geometry" />
        </mxCell>
        <mxCell id="1-3JkJQkq4VCLz2nIE13-14" value="scores" style="text;html=1;strokeColor=none;fillColor=none;align=center;verticalAlign=middle;whiteSpace=wrap;rounded=0;fontSize=6;" parent="1" vertex="1">
          <mxGeometry x="480" y="1030" width="30" height="10" as="geometry" />
        </mxCell>
        <mxCell id="1-3JkJQkq4VCLz2nIE13-15" value="offsets" style="text;html=1;strokeColor=none;fillColor=none;align=center;verticalAlign=middle;whiteSpace=wrap;rounded=0;fontSize=6;" parent="1" vertex="1">
          <mxGeometry x="480" y="1090" width="30" height="10" as="geometry" />
        </mxCell>
        <mxCell id="1-3JkJQkq4VCLz2nIE13-16" value="scores" style="text;html=1;strokeColor=none;fillColor=none;align=center;verticalAlign=middle;whiteSpace=wrap;rounded=0;fontSize=6;" parent="1" vertex="1">
          <mxGeometry x="480" y="1095" width="30" height="15" as="geometry" />
        </mxCell>
        <mxCell id="1-3JkJQkq4VCLz2nIE13-19" value="coordinates" style="text;html=1;strokeColor=none;fillColor=none;align=center;verticalAlign=middle;whiteSpace=wrap;rounded=0;fontSize=6;" parent="1" vertex="1">
          <mxGeometry x="580" y="960" width="40" height="10" as="geometry" />
        </mxCell>
        <mxCell id="1-3JkJQkq4VCLz2nIE13-20" value="coordinates" style="text;html=1;strokeColor=none;fillColor=none;align=center;verticalAlign=middle;whiteSpace=wrap;rounded=0;fontSize=6;" parent="1" vertex="1">
          <mxGeometry x="580" y="1030" width="40" height="10" as="geometry" />
        </mxCell>
        <mxCell id="1-3JkJQkq4VCLz2nIE13-23" value="candidate windows" style="text;html=1;strokeColor=none;fillColor=none;align=center;verticalAlign=middle;whiteSpace=wrap;rounded=0;fontSize=6;" parent="1" vertex="1">
          <mxGeometry x="380" y="950" width="30" height="20" as="geometry" />
        </mxCell>
        <mxCell id="1-3JkJQkq4VCLz2nIE13-24" value="candidate windows" style="text;html=1;strokeColor=none;fillColor=none;align=center;verticalAlign=middle;whiteSpace=wrap;rounded=0;fontSize=6;" parent="1" vertex="1">
          <mxGeometry x="380" y="1020" width="30" height="20" as="geometry" />
        </mxCell>
        <mxCell id="1-3JkJQkq4VCLz2nIE13-25" value="candidate windows" style="text;html=1;strokeColor=none;fillColor=none;align=center;verticalAlign=middle;whiteSpace=wrap;rounded=0;fontSize=6;" parent="1" vertex="1">
          <mxGeometry x="380" y="1090" width="30" height="20" as="geometry" />
        </mxCell>
        <mxCell id="1-3JkJQkq4VCLz2nIE13-28" value="input image" style="text;html=1;strokeColor=none;fillColor=none;align=center;verticalAlign=middle;whiteSpace=wrap;rounded=0;fontSize=6;" parent="1" vertex="1">
          <mxGeometry x="280" y="950" width="30" height="20" as="geometry" />
        </mxCell>
        <mxCell id="g7NsFF6Sx_r7J6LsosX_-1" value="Image pyramid" style="rounded=0;whiteSpace=wrap;html=1;fillColor=#fff2cc;strokeColor=default;" parent="1" vertex="1">
          <mxGeometry x="310" y="950" width="70" height="50" as="geometry" />
        </mxCell>
        <mxCell id="g7NsFF6Sx_r7J6LsosX_-9" value="coordinates" style="text;html=1;strokeColor=none;fillColor=none;align=center;verticalAlign=middle;whiteSpace=wrap;rounded=0;fontSize=6;" parent="1" vertex="1">
          <mxGeometry x="580" y="1100" width="40" height="10" as="geometry" />
        </mxCell>
        <mxCell id="g7NsFF6Sx_r7J6LsosX_-10" value="input image" style="text;html=1;strokeColor=none;fillColor=none;align=center;verticalAlign=middle;whiteSpace=wrap;rounded=0;fontSize=6;" parent="1" vertex="1">
          <mxGeometry x="260" y="1030" width="30" height="20" as="geometry" />
        </mxCell>
        <mxCell id="g7NsFF6Sx_r7J6LsosX_-11" value="input image" style="text;html=1;strokeColor=none;fillColor=none;align=center;verticalAlign=middle;whiteSpace=wrap;rounded=0;fontSize=6;" parent="1" vertex="1">
          <mxGeometry x="260" y="1100" width="30" height="20" as="geometry" />
        </mxCell>
        <mxCell id="g7NsFF6Sx_r7J6LsosX_-12" value="Cropped image" style="text;html=1;strokeColor=none;fillColor=none;align=center;verticalAlign=middle;whiteSpace=wrap;rounded=0;fontSize=6;" parent="1" vertex="1">
          <mxGeometry x="700" y="1100" width="30" height="15" as="geometry" />
        </mxCell>
        <mxCell id="g7NsFF6Sx_r7J6LsosX_-14" value="Resized image" style="text;html=1;strokeColor=none;fillColor=none;align=center;verticalAlign=middle;whiteSpace=wrap;rounded=0;fontSize=6;" parent="1" vertex="1">
          <mxGeometry x="790" y="1100" width="30" height="15" as="geometry" />
        </mxCell>
        <mxCell id="g7NsFF6Sx_r7J6LsosX_-15" value="Bounding boxes no overlapped" style="text;html=1;strokeColor=none;fillColor=none;align=center;verticalAlign=middle;whiteSpace=wrap;rounded=0;fontSize=6;" parent="1" vertex="1">
          <mxGeometry x="700" y="1025" width="30" height="20" as="geometry" />
        </mxCell>
        <mxCell id="g7NsFF6Sx_r7J6LsosX_-16" value="Calibrated&amp;nbsp; bounding boxes" style="text;html=1;strokeColor=none;fillColor=none;align=center;verticalAlign=middle;whiteSpace=wrap;rounded=0;fontSize=6;" parent="1" vertex="1">
          <mxGeometry x="790" y="1025" width="30" height="20" as="geometry" />
        </mxCell>
        <mxCell id="g7NsFF6Sx_r7J6LsosX_-18" value="Squared and corrected bounding boxes" style="text;html=1;strokeColor=none;fillColor=none;align=center;verticalAlign=middle;whiteSpace=wrap;rounded=0;fontSize=6;" parent="1" vertex="1">
          <mxGeometry x="880" y="1025" width="50" height="20" as="geometry" />
        </mxCell>
        <mxCell id="Bt43okNIhcGlWjT723cL-1" value="" style="rounded=0;whiteSpace=wrap;html=1;fillColor=#fff2cc;strokeColor=default;" parent="1" vertex="1">
          <mxGeometry x="1490" y="870" width="270" height="140" as="geometry" />
        </mxCell>
        <mxCell id="Bt43okNIhcGlWjT723cL-2" value="FreeRTOS kernel" style="rounded=0;whiteSpace=wrap;html=1;fillColor=#F19C99;strokeColor=default;" parent="1" vertex="1">
          <mxGeometry x="1500" y="890" width="70" height="70" as="geometry" />
        </mxCell>
        <mxCell id="Bt43okNIhcGlWjT723cL-3" value="TLS" style="rounded=0;whiteSpace=wrap;html=1;fillColor=#d5e8d4;strokeColor=default;" parent="1" vertex="1">
          <mxGeometry x="1580" y="930" width="50" height="30" as="geometry" />
        </mxCell>
        <mxCell id="Bt43okNIhcGlWjT723cL-4" value="Wi-Fi" style="rounded=0;whiteSpace=wrap;html=1;fillColor=#d5e8d4;strokeColor=default;" parent="1" vertex="1">
          <mxGeometry x="1580" y="890" width="50" height="30" as="geometry" />
        </mxCell>
        <mxCell id="Bt43okNIhcGlWjT723cL-6" value="TFLite micro library" style="rounded=0;whiteSpace=wrap;html=1;fillColor=#dae8fc;strokeColor=default;" parent="1" vertex="1">
          <mxGeometry x="1500" y="810" width="80" height="40" as="geometry" />
        </mxCell>
        <mxCell id="Bt43okNIhcGlWjT723cL-7" value="ESP-NN" style="rounded=0;whiteSpace=wrap;html=1;fillColor=#dae8fc;strokeColor=default;" parent="1" vertex="1">
          <mxGeometry x="1690" y="810" width="60" height="40" as="geometry" />
        </mxCell>
        <mxCell id="Bt43okNIhcGlWjT723cL-9" value="ESP32 camera driver" style="rounded=0;whiteSpace=wrap;html=1;fillColor=#dae8fc;strokeColor=default;" parent="1" vertex="1">
          <mxGeometry x="1590" y="810" width="90" height="40" as="geometry" />
        </mxCell>
        <mxCell id="Bt43okNIhcGlWjT723cL-10" value="MQTT" style="rounded=0;whiteSpace=wrap;html=1;fillColor=#d5e8d4;strokeColor=default;" parent="1" vertex="1">
          <mxGeometry x="1640" y="890" width="50" height="30" as="geometry" />
        </mxCell>
        <mxCell id="Bt43okNIhcGlWjT723cL-11" value="ESP-IDF SDK" style="text;html=1;strokeColor=none;fillColor=none;align=center;verticalAlign=middle;whiteSpace=wrap;rounded=0;" parent="1" vertex="1">
          <mxGeometry x="1585" y="870" width="80" height="20" as="geometry" />
        </mxCell>
        <mxCell id="Bt43okNIhcGlWjT723cL-13" value="HAL" style="rounded=0;whiteSpace=wrap;html=1;fillColor=#A9C4EB;strokeColor=default;" parent="1" vertex="1">
          <mxGeometry x="1500" y="970" width="250" height="30" as="geometry" />
        </mxCell>
        <mxCell id="Bt43okNIhcGlWjT723cL-14" value="LEDC" style="rounded=0;whiteSpace=wrap;html=1;fillColor=#d5e8d4;strokeColor=default;" parent="1" vertex="1">
          <mxGeometry x="1640" y="930" width="50" height="30" as="geometry" />
        </mxCell>
        <mxCell id="Bt43okNIhcGlWjT723cL-15" value="I2C" style="rounded=0;whiteSpace=wrap;html=1;fillColor=#d5e8d4;strokeColor=default;" parent="1" vertex="1">
          <mxGeometry x="1700" y="930" width="50" height="30" as="geometry" />
        </mxCell>
        <mxCell id="Bt43okNIhcGlWjT723cL-16" value="NVS" style="rounded=0;whiteSpace=wrap;html=1;fillColor=#d5e8d4;strokeColor=default;" parent="1" vertex="1">
          <mxGeometry x="1700" y="890" width="50" height="30" as="geometry" />
        </mxCell>
        <mxCell id="Bt43okNIhcGlWjT723cL-18" value="Components" style="text;html=1;strokeColor=none;fillColor=none;align=center;verticalAlign=middle;whiteSpace=wrap;rounded=0;" parent="1" vertex="1">
          <mxGeometry x="1570" y="790" width="110" height="20" as="geometry" />
        </mxCell>
        <mxCell id="Bt43okNIhcGlWjT723cL-20" value="Utils" style="rounded=0;whiteSpace=wrap;html=1;fillColor=#e1d5e7;strokeColor=default;" parent="1" vertex="1">
          <mxGeometry x="1500" y="730" width="80" height="40" as="geometry" />
        </mxCell>
        <mxCell id="Bt43okNIhcGlWjT723cL-22" value="ULP application" style="rounded=0;whiteSpace=wrap;html=1;fillColor=#e1d5e7;strokeColor=default;" parent="1" vertex="1">
          <mxGeometry x="1680" y="680" width="70" height="90" as="geometry" />
        </mxCell>
        <mxCell id="Bt43okNIhcGlWjT723cL-23" value="Main application" style="rounded=0;whiteSpace=wrap;html=1;fillColor=#e1d5e7;strokeColor=default;" parent="1" vertex="1">
          <mxGeometry x="1500" y="680" width="170" height="40" as="geometry" />
        </mxCell>
        <mxCell id="Bt43okNIhcGlWjT723cL-24" value="MTCNN" style="rounded=0;whiteSpace=wrap;html=1;fillColor=#e1d5e7;strokeColor=default;" parent="1" vertex="1">
          <mxGeometry x="1590" y="730" width="80" height="40" as="geometry" />
        </mxCell>
        <mxCell id="Bt43okNIhcGlWjT723cL-25" value="Application" style="text;html=1;strokeColor=none;fillColor=none;align=center;verticalAlign=middle;whiteSpace=wrap;rounded=0;" parent="1" vertex="1">
          <mxGeometry x="1570" y="660" width="110" height="20" as="geometry" />
        </mxCell>
        <mxCell id="oOd3D91Kdge9ShzVlUxA-4" value="" style="endArrow=classic;html=1;rounded=0;" parent="1" edge="1">
          <mxGeometry width="50" height="50" relative="1" as="geometry">
            <mxPoint x="1920" y="920" as="sourcePoint" />
            <mxPoint x="1920" y="850" as="targetPoint" />
          </mxGeometry>
        </mxCell>
        <mxCell id="oOd3D91Kdge9ShzVlUxA-5" value="" style="endArrow=classic;html=1;rounded=0;" parent="1" edge="1">
          <mxGeometry width="50" height="50" relative="1" as="geometry">
            <mxPoint x="1910" y="909.83" as="sourcePoint" />
            <mxPoint x="2100" y="910" as="targetPoint" />
          </mxGeometry>
        </mxCell>
        <mxCell id="oOd3D91Kdge9ShzVlUxA-7" value="" style="endArrow=none;html=1;rounded=0;" parent="1" edge="1">
          <mxGeometry width="50" height="50" relative="1" as="geometry">
            <mxPoint x="1930" y="889.94" as="sourcePoint" />
            <mxPoint x="1940" y="890" as="targetPoint" />
          </mxGeometry>
        </mxCell>
        <mxCell id="oOd3D91Kdge9ShzVlUxA-8" value="" style="endArrow=none;html=1;rounded=0;" parent="1" edge="1">
          <mxGeometry width="50" height="50" relative="1" as="geometry">
            <mxPoint x="1920" y="880" as="sourcePoint" />
            <mxPoint x="1930" y="880" as="targetPoint" />
          </mxGeometry>
        </mxCell>
        <mxCell id="oOd3D91Kdge9ShzVlUxA-9" value="" style="endArrow=none;html=1;rounded=0;" parent="1" edge="1">
          <mxGeometry width="50" height="50" relative="1" as="geometry">
            <mxPoint x="1930" y="880" as="sourcePoint" />
            <mxPoint x="1930" y="890" as="targetPoint" />
          </mxGeometry>
        </mxCell>
        <mxCell id="oOd3D91Kdge9ShzVlUxA-11" value="" style="endArrow=none;html=1;rounded=0;" parent="1" edge="1">
          <mxGeometry width="50" height="50" relative="1" as="geometry">
            <mxPoint x="1940" y="899.94" as="sourcePoint" />
            <mxPoint x="1950" y="900" as="targetPoint" />
          </mxGeometry>
        </mxCell>
        <mxCell id="oOd3D91Kdge9ShzVlUxA-12" value="" style="endArrow=none;html=1;rounded=0;" parent="1" edge="1">
          <mxGeometry width="50" height="50" relative="1" as="geometry">
            <mxPoint x="1940" y="890" as="sourcePoint" />
            <mxPoint x="1940" y="900" as="targetPoint" />
          </mxGeometry>
        </mxCell>
        <mxCell id="oOd3D91Kdge9ShzVlUxA-13" value="" style="endArrow=none;html=1;rounded=0;dashed=1;dashPattern=1 1;" parent="1" edge="1">
          <mxGeometry width="50" height="50" relative="1" as="geometry">
            <mxPoint x="1950" y="900" as="sourcePoint" />
            <mxPoint x="1960" y="900" as="targetPoint" />
          </mxGeometry>
        </mxCell>
        <mxCell id="oOd3D91Kdge9ShzVlUxA-15" value="" style="endArrow=none;html=1;rounded=0;" parent="1" edge="1">
          <mxGeometry width="50" height="50" relative="1" as="geometry">
            <mxPoint x="1960" y="900" as="sourcePoint" />
            <mxPoint x="1970" y="900" as="targetPoint" />
          </mxGeometry>
        </mxCell>
        <mxCell id="oOd3D91Kdge9ShzVlUxA-16" value="" style="endArrow=none;html=1;rounded=0;" parent="1" edge="1">
          <mxGeometry width="50" height="50" relative="1" as="geometry">
            <mxPoint x="1970" y="890.08" as="sourcePoint" />
            <mxPoint x="1970" y="900.08" as="targetPoint" />
          </mxGeometry>
        </mxCell>
        <mxCell id="oOd3D91Kdge9ShzVlUxA-17" value="" style="endArrow=none;html=1;rounded=0;" parent="1" edge="1">
          <mxGeometry width="50" height="50" relative="1" as="geometry">
            <mxPoint x="1970" y="890.0000000000001" as="sourcePoint" />
            <mxPoint x="1980" y="890.0600000000001" as="targetPoint" />
          </mxGeometry>
        </mxCell>
        <mxCell id="oOd3D91Kdge9ShzVlUxA-18" value="" style="endArrow=none;html=1;rounded=0;" parent="1" edge="1">
          <mxGeometry width="50" height="50" relative="1" as="geometry">
            <mxPoint x="1980" y="890.08" as="sourcePoint" />
            <mxPoint x="1980" y="900.08" as="targetPoint" />
          </mxGeometry>
        </mxCell>
        <mxCell id="oOd3D91Kdge9ShzVlUxA-20" value="" style="endArrow=none;html=1;rounded=0;" parent="1" edge="1">
          <mxGeometry width="50" height="50" relative="1" as="geometry">
            <mxPoint x="1980" y="900" as="sourcePoint" />
            <mxPoint x="1990" y="900.06" as="targetPoint" />
          </mxGeometry>
        </mxCell>
        <mxCell id="oOd3D91Kdge9ShzVlUxA-21" value="" style="endArrow=none;html=1;rounded=0;dashed=1;dashPattern=1 1;" parent="1" edge="1">
          <mxGeometry width="50" height="50" relative="1" as="geometry">
            <mxPoint x="1990" y="900.06" as="sourcePoint" />
            <mxPoint x="2000" y="900.06" as="targetPoint" />
          </mxGeometry>
        </mxCell>
        <mxCell id="oOd3D91Kdge9ShzVlUxA-22" value="" style="endArrow=none;html=1;rounded=0;" parent="1" edge="1">
          <mxGeometry width="50" height="50" relative="1" as="geometry">
            <mxPoint x="2000" y="900.06" as="sourcePoint" />
            <mxPoint x="2010" y="900.06" as="targetPoint" />
          </mxGeometry>
        </mxCell>
        <mxCell id="oOd3D91Kdge9ShzVlUxA-23" value="" style="endArrow=none;html=1;rounded=0;" parent="1" edge="1">
          <mxGeometry width="50" height="50" relative="1" as="geometry">
            <mxPoint x="2010" y="890.08" as="sourcePoint" />
            <mxPoint x="2010" y="900.08" as="targetPoint" />
          </mxGeometry>
        </mxCell>
        <mxCell id="oOd3D91Kdge9ShzVlUxA-24" value="" style="endArrow=none;html=1;rounded=0;" parent="1" edge="1">
          <mxGeometry width="50" height="50" relative="1" as="geometry">
            <mxPoint x="2010" y="890.0000000000001" as="sourcePoint" />
            <mxPoint x="2020" y="890.0600000000001" as="targetPoint" />
          </mxGeometry>
        </mxCell>
        <mxCell id="oOd3D91Kdge9ShzVlUxA-26" value="" style="endArrow=none;html=1;rounded=0;" parent="1" edge="1">
          <mxGeometry width="50" height="50" relative="1" as="geometry">
            <mxPoint x="2020" y="879.92" as="sourcePoint" />
            <mxPoint x="2060" y="880" as="targetPoint" />
          </mxGeometry>
        </mxCell>
        <mxCell id="oOd3D91Kdge9ShzVlUxA-27" value="" style="endArrow=none;html=1;rounded=0;" parent="1" edge="1">
          <mxGeometry width="50" height="50" relative="1" as="geometry">
            <mxPoint x="2020" y="880" as="sourcePoint" />
            <mxPoint x="2020" y="890" as="targetPoint" />
          </mxGeometry>
        </mxCell>
        <mxCell id="oOd3D91Kdge9ShzVlUxA-29" value="" style="endArrow=none;html=1;rounded=0;" parent="1" edge="1">
          <mxGeometry width="50" height="50" relative="1" as="geometry">
            <mxPoint x="2060" y="890" as="sourcePoint" />
            <mxPoint x="2070" y="890.06" as="targetPoint" />
          </mxGeometry>
        </mxCell>
        <mxCell id="oOd3D91Kdge9ShzVlUxA-30" value="" style="endArrow=none;html=1;rounded=0;" parent="1" edge="1">
          <mxGeometry width="50" height="50" relative="1" as="geometry">
            <mxPoint x="2070" y="890.06" as="sourcePoint" />
            <mxPoint x="2070" y="900.06" as="targetPoint" />
          </mxGeometry>
        </mxCell>
        <mxCell id="oOd3D91Kdge9ShzVlUxA-31" value="" style="endArrow=none;html=1;rounded=0;" parent="1" edge="1">
          <mxGeometry width="50" height="50" relative="1" as="geometry">
            <mxPoint x="2060" y="880" as="sourcePoint" />
            <mxPoint x="2060" y="890" as="targetPoint" />
          </mxGeometry>
        </mxCell>
        <mxCell id="oOd3D91Kdge9ShzVlUxA-32" value="" style="endArrow=none;html=1;rounded=0;dashed=1;dashPattern=1 1;" parent="1" edge="1">
          <mxGeometry width="50" height="50" relative="1" as="geometry">
            <mxPoint x="2070" y="900" as="sourcePoint" />
            <mxPoint x="2080" y="900" as="targetPoint" />
          </mxGeometry>
        </mxCell>
        <mxCell id="gToxaZRA3JzeqiSmNM1x-4" value="" style="edgeStyle=orthogonalEdgeStyle;rounded=0;orthogonalLoop=1;jettySize=auto;html=1;fillColor=#fff2cc;strokeColor=default;" edge="1" parent="1" source="gToxaZRA3JzeqiSmNM1x-2" target="gToxaZRA3JzeqiSmNM1x-3">
          <mxGeometry relative="1" as="geometry" />
        </mxCell>
        <mxCell id="gToxaZRA3JzeqiSmNM1x-2" value="Start" style="strokeWidth=2;html=1;shape=mxgraph.flowchart.terminator;whiteSpace=wrap;fillColor=#fff2cc;strokeColor=default;" vertex="1" parent="1">
          <mxGeometry x="1250" y="1270" width="40" height="20" as="geometry" />
        </mxCell>
        <mxCell id="gToxaZRA3JzeqiSmNM1x-23" style="edgeStyle=orthogonalEdgeStyle;rounded=0;orthogonalLoop=1;jettySize=auto;html=1;exitX=0.5;exitY=1;exitDx=0;exitDy=0;entryX=0.5;entryY=0;entryDx=0;entryDy=0;fillColor=#fff2cc;strokeColor=default;" edge="1" parent="1" source="gToxaZRA3JzeqiSmNM1x-3" target="gToxaZRA3JzeqiSmNM1x-7">
          <mxGeometry relative="1" as="geometry" />
        </mxCell>
        <mxCell id="gToxaZRA3JzeqiSmNM1x-3" value="TFLite micro initialization" style="rounded=1;whiteSpace=wrap;html=1;absoluteArcSize=1;arcSize=14;strokeWidth=2;fillColor=#fff2cc;strokeColor=default;" vertex="1" parent="1">
          <mxGeometry x="1230" y="1310" width="80" height="30" as="geometry" />
        </mxCell>
        <mxCell id="gToxaZRA3JzeqiSmNM1x-10" value="" style="edgeStyle=orthogonalEdgeStyle;rounded=0;orthogonalLoop=1;jettySize=auto;html=1;fillColor=#fff2cc;strokeColor=default;" edge="1" parent="1" source="gToxaZRA3JzeqiSmNM1x-7" target="gToxaZRA3JzeqiSmNM1x-9">
          <mxGeometry relative="1" as="geometry" />
        </mxCell>
        <mxCell id="gToxaZRA3JzeqiSmNM1x-7" value="Camera initialization" style="rounded=1;whiteSpace=wrap;html=1;absoluteArcSize=1;arcSize=14;strokeWidth=2;fillColor=#fff2cc;strokeColor=default;" vertex="1" parent="1">
          <mxGeometry x="1230" y="1360" width="80" height="30" as="geometry" />
        </mxCell>
        <mxCell id="gToxaZRA3JzeqiSmNM1x-135" style="edgeStyle=orthogonalEdgeStyle;rounded=0;orthogonalLoop=1;jettySize=auto;html=1;exitX=1;exitY=0.5;exitDx=0;exitDy=0;exitPerimeter=0;entryX=0.5;entryY=0;entryDx=0;entryDy=0;entryPerimeter=0;" edge="1" parent="1" source="gToxaZRA3JzeqiSmNM1x-8" target="gToxaZRA3JzeqiSmNM1x-64">
          <mxGeometry relative="1" as="geometry" />
        </mxCell>
        <mxCell id="gToxaZRA3JzeqiSmNM1x-137" style="edgeStyle=orthogonalEdgeStyle;rounded=0;orthogonalLoop=1;jettySize=auto;html=1;exitX=0;exitY=0.5;exitDx=0;exitDy=0;exitPerimeter=0;entryX=0.5;entryY=0;entryDx=0;entryDy=0;" edge="1" parent="1" source="gToxaZRA3JzeqiSmNM1x-8" target="gToxaZRA3JzeqiSmNM1x-45">
          <mxGeometry relative="1" as="geometry" />
        </mxCell>
        <mxCell id="gToxaZRA3JzeqiSmNM1x-8" value="n++ &amp;lt; 10" style="strokeWidth=2;html=1;shape=mxgraph.flowchart.decision;whiteSpace=wrap;fillColor=#fff2cc;strokeColor=default;" vertex="1" parent="1">
          <mxGeometry x="1228.87" y="1470" width="80" height="40" as="geometry" />
        </mxCell>
        <mxCell id="gToxaZRA3JzeqiSmNM1x-24" style="edgeStyle=orthogonalEdgeStyle;rounded=0;orthogonalLoop=1;jettySize=auto;html=1;exitX=0.5;exitY=1;exitDx=0;exitDy=0;entryX=0.5;entryY=0;entryDx=0;entryDy=0;entryPerimeter=0;fillColor=#fff2cc;strokeColor=default;" edge="1" parent="1" source="gToxaZRA3JzeqiSmNM1x-9" target="gToxaZRA3JzeqiSmNM1x-8">
          <mxGeometry relative="1" as="geometry" />
        </mxCell>
        <mxCell id="gToxaZRA3JzeqiSmNM1x-9" value="MTCNN initialization" style="rounded=1;whiteSpace=wrap;html=1;absoluteArcSize=1;arcSize=14;strokeWidth=2;fillColor=#fff2cc;strokeColor=default;" vertex="1" parent="1">
          <mxGeometry x="1230" y="1410" width="80" height="30" as="geometry" />
        </mxCell>
        <mxCell id="gToxaZRA3JzeqiSmNM1x-71" style="edgeStyle=orthogonalEdgeStyle;rounded=0;orthogonalLoop=1;jettySize=auto;html=1;exitX=0.5;exitY=1;exitDx=0;exitDy=0;entryX=0.5;entryY=0;entryDx=0;entryDy=0;fillColor=#fff2cc;strokeColor=default;" edge="1" parent="1" source="gToxaZRA3JzeqiSmNM1x-45" target="gToxaZRA3JzeqiSmNM1x-68">
          <mxGeometry relative="1" as="geometry" />
        </mxCell>
        <mxCell id="gToxaZRA3JzeqiSmNM1x-45" value="Get image" style="rounded=1;whiteSpace=wrap;html=1;absoluteArcSize=1;arcSize=14;strokeWidth=2;fillColor=#fff2cc;strokeColor=default;" vertex="1" parent="1">
          <mxGeometry x="1090" y="1510" width="80" height="30" as="geometry" />
        </mxCell>
        <mxCell id="gToxaZRA3JzeqiSmNM1x-73" style="edgeStyle=orthogonalEdgeStyle;rounded=0;orthogonalLoop=1;jettySize=auto;html=1;exitX=1;exitY=0.5;exitDx=0;exitDy=0;exitPerimeter=0;entryX=0.5;entryY=0;entryDx=0;entryDy=0;fillColor=#fff2cc;strokeColor=default;" edge="1" parent="1" source="gToxaZRA3JzeqiSmNM1x-52" target="gToxaZRA3JzeqiSmNM1x-69">
          <mxGeometry relative="1" as="geometry" />
        </mxCell>
        <mxCell id="gToxaZRA3JzeqiSmNM1x-139" style="edgeStyle=orthogonalEdgeStyle;rounded=0;orthogonalLoop=1;jettySize=auto;html=1;exitX=0;exitY=0.5;exitDx=0;exitDy=0;exitPerimeter=0;endArrow=none;endFill=0;" edge="1" parent="1" source="gToxaZRA3JzeqiSmNM1x-52">
          <mxGeometry relative="1" as="geometry">
            <mxPoint x="1060" y="1629.7906976744189" as="targetPoint" />
          </mxGeometry>
        </mxCell>
        <mxCell id="gToxaZRA3JzeqiSmNM1x-52" value="faces &amp;gt; 0" style="strokeWidth=2;html=1;shape=mxgraph.flowchart.decision;whiteSpace=wrap;fillColor=#fff2cc;strokeColor=default;" vertex="1" parent="1">
          <mxGeometry x="1095" y="1610" width="70" height="40" as="geometry" />
        </mxCell>
        <mxCell id="gToxaZRA3JzeqiSmNM1x-64" value="End" style="strokeWidth=2;html=1;shape=mxgraph.flowchart.terminator;whiteSpace=wrap;fillColor=#fff2cc;strokeColor=default;" vertex="1" parent="1">
          <mxGeometry x="1328.87" y="1510" width="40" height="20" as="geometry" />
        </mxCell>
        <mxCell id="gToxaZRA3JzeqiSmNM1x-72" style="edgeStyle=orthogonalEdgeStyle;rounded=0;orthogonalLoop=1;jettySize=auto;html=1;exitX=0.5;exitY=1;exitDx=0;exitDy=0;entryX=0.5;entryY=0;entryDx=0;entryDy=0;entryPerimeter=0;fillColor=#fff2cc;strokeColor=default;" edge="1" parent="1" source="gToxaZRA3JzeqiSmNM1x-68" target="gToxaZRA3JzeqiSmNM1x-52">
          <mxGeometry relative="1" as="geometry" />
        </mxCell>
        <mxCell id="gToxaZRA3JzeqiSmNM1x-68" value="Run P-Net" style="rounded=1;whiteSpace=wrap;html=1;absoluteArcSize=1;arcSize=14;strokeWidth=2;fillColor=#fff2cc;strokeColor=default;" vertex="1" parent="1">
          <mxGeometry x="1090" y="1560" width="80" height="30" as="geometry" />
        </mxCell>
        <mxCell id="gToxaZRA3JzeqiSmNM1x-75" style="edgeStyle=orthogonalEdgeStyle;rounded=0;orthogonalLoop=1;jettySize=auto;html=1;exitX=0.5;exitY=1;exitDx=0;exitDy=0;entryX=0.5;entryY=0;entryDx=0;entryDy=0;entryPerimeter=0;fillColor=#fff2cc;strokeColor=default;" edge="1" parent="1" source="gToxaZRA3JzeqiSmNM1x-69" target="gToxaZRA3JzeqiSmNM1x-74">
          <mxGeometry relative="1" as="geometry" />
        </mxCell>
        <mxCell id="gToxaZRA3JzeqiSmNM1x-69" value="Run R-Net" style="rounded=1;whiteSpace=wrap;html=1;absoluteArcSize=1;arcSize=14;strokeWidth=2;fillColor=#fff2cc;strokeColor=default;" vertex="1" parent="1">
          <mxGeometry x="1160" y="1650" width="80" height="30" as="geometry" />
        </mxCell>
        <mxCell id="gToxaZRA3JzeqiSmNM1x-138" style="edgeStyle=orthogonalEdgeStyle;rounded=0;orthogonalLoop=1;jettySize=auto;html=1;exitX=0.5;exitY=1;exitDx=0;exitDy=0;" edge="1" parent="1" source="gToxaZRA3JzeqiSmNM1x-70">
          <mxGeometry relative="1" as="geometry">
            <mxPoint x="1269.860465116279" y="1450" as="targetPoint" />
            <Array as="points">
              <mxPoint x="1270" y="1790" />
              <mxPoint x="1060" y="1790" />
              <mxPoint x="1060" y="1450" />
            </Array>
          </mxGeometry>
        </mxCell>
        <mxCell id="gToxaZRA3JzeqiSmNM1x-70" value="Run O-Net" style="rounded=1;whiteSpace=wrap;html=1;absoluteArcSize=1;arcSize=14;strokeWidth=2;fillColor=#fff2cc;strokeColor=default;" vertex="1" parent="1">
          <mxGeometry x="1230" y="1740" width="80" height="30" as="geometry" />
        </mxCell>
        <mxCell id="gToxaZRA3JzeqiSmNM1x-76" style="edgeStyle=orthogonalEdgeStyle;rounded=0;orthogonalLoop=1;jettySize=auto;html=1;exitX=1;exitY=0.5;exitDx=0;exitDy=0;exitPerimeter=0;entryX=0.5;entryY=0;entryDx=0;entryDy=0;fillColor=#fff2cc;strokeColor=default;" edge="1" parent="1" source="gToxaZRA3JzeqiSmNM1x-74" target="gToxaZRA3JzeqiSmNM1x-70">
          <mxGeometry relative="1" as="geometry" />
        </mxCell>
        <mxCell id="gToxaZRA3JzeqiSmNM1x-136" style="edgeStyle=orthogonalEdgeStyle;rounded=0;orthogonalLoop=1;jettySize=auto;html=1;exitX=0;exitY=0.5;exitDx=0;exitDy=0;exitPerimeter=0;endArrow=none;endFill=0;" edge="1" parent="1" source="gToxaZRA3JzeqiSmNM1x-74">
          <mxGeometry relative="1" as="geometry">
            <mxPoint x="1061.13" y="1719.913043478261" as="targetPoint" />
          </mxGeometry>
        </mxCell>
        <mxCell id="gToxaZRA3JzeqiSmNM1x-74" value="faces &amp;gt; 0" style="strokeWidth=2;html=1;shape=mxgraph.flowchart.decision;whiteSpace=wrap;fillColor=#fff2cc;strokeColor=default;" vertex="1" parent="1">
          <mxGeometry x="1165" y="1700" width="70" height="40" as="geometry" />
        </mxCell>
        <mxCell id="gToxaZRA3JzeqiSmNM1x-84" value="true" style="text;html=1;strokeColor=none;fillColor=none;align=center;verticalAlign=middle;whiteSpace=wrap;rounded=0;" vertex="1" parent="1">
          <mxGeometry x="1197.7399999999998" y="1478" width="30" height="10" as="geometry" />
        </mxCell>
        <mxCell id="gToxaZRA3JzeqiSmNM1x-85" value="false" style="text;html=1;strokeColor=none;fillColor=none;align=center;verticalAlign=middle;whiteSpace=wrap;rounded=0;" vertex="1" parent="1">
          <mxGeometry x="1308.87" y="1478" width="30" height="10" as="geometry" />
        </mxCell>
        <mxCell id="gToxaZRA3JzeqiSmNM1x-86" value="false" style="text;html=1;strokeColor=none;fillColor=none;align=center;verticalAlign=middle;whiteSpace=wrap;rounded=0;" vertex="1" parent="1">
          <mxGeometry x="1071.13" y="1608" width="30" height="10" as="geometry" />
        </mxCell>
        <mxCell id="gToxaZRA3JzeqiSmNM1x-87" value="false" style="text;html=1;strokeColor=none;fillColor=none;align=center;verticalAlign=middle;whiteSpace=wrap;rounded=0;" vertex="1" parent="1">
          <mxGeometry x="1135" y="1708" width="30" height="10" as="geometry" />
        </mxCell>
        <mxCell id="gToxaZRA3JzeqiSmNM1x-88" value="true" style="text;html=1;strokeColor=none;fillColor=none;align=center;verticalAlign=middle;whiteSpace=wrap;rounded=0;" vertex="1" parent="1">
          <mxGeometry x="1165" y="1618" width="30" height="10" as="geometry" />
        </mxCell>
        <mxCell id="gToxaZRA3JzeqiSmNM1x-89" value="true" style="text;html=1;strokeColor=none;fillColor=none;align=center;verticalAlign=middle;whiteSpace=wrap;rounded=0;" vertex="1" parent="1">
          <mxGeometry x="1235" y="1708" width="30" height="10" as="geometry" />
        </mxCell>
        <mxCell id="gToxaZRA3JzeqiSmNM1x-95" style="edgeStyle=orthogonalEdgeStyle;rounded=0;orthogonalLoop=1;jettySize=auto;html=1;exitX=0.5;exitY=1;exitDx=0;exitDy=0;exitPerimeter=0;entryX=0.5;entryY=0;entryDx=0;entryDy=0;" edge="1" parent="1" source="gToxaZRA3JzeqiSmNM1x-92" target="gToxaZRA3JzeqiSmNM1x-94">
          <mxGeometry relative="1" as="geometry" />
        </mxCell>
        <mxCell id="gToxaZRA3JzeqiSmNM1x-92" value="Start" style="strokeWidth=2;html=1;shape=mxgraph.flowchart.terminator;whiteSpace=wrap;fillColor=#fff2cc;strokeColor=default;" vertex="1" parent="1">
          <mxGeometry x="1700" y="1650" width="40" height="20" as="geometry" />
        </mxCell>
        <mxCell id="gToxaZRA3JzeqiSmNM1x-97" style="edgeStyle=orthogonalEdgeStyle;rounded=0;orthogonalLoop=1;jettySize=auto;html=1;exitX=0.5;exitY=1;exitDx=0;exitDy=0;entryX=0.5;entryY=0;entryDx=0;entryDy=0;" edge="1" parent="1" source="gToxaZRA3JzeqiSmNM1x-94" target="gToxaZRA3JzeqiSmNM1x-96">
          <mxGeometry relative="1" as="geometry" />
        </mxCell>
        <mxCell id="gToxaZRA3JzeqiSmNM1x-94" value="NVS intialization" style="rounded=1;whiteSpace=wrap;html=1;absoluteArcSize=1;arcSize=14;strokeWidth=2;fillColor=#fff2cc;strokeColor=default;" vertex="1" parent="1">
          <mxGeometry x="1680" y="1690" width="80" height="30" as="geometry" />
        </mxCell>
        <mxCell id="gToxaZRA3JzeqiSmNM1x-99" style="edgeStyle=orthogonalEdgeStyle;rounded=0;orthogonalLoop=1;jettySize=auto;html=1;exitX=0.5;exitY=1;exitDx=0;exitDy=0;entryX=0.5;entryY=0;entryDx=0;entryDy=0;entryPerimeter=0;" edge="1" parent="1" source="gToxaZRA3JzeqiSmNM1x-96" target="gToxaZRA3JzeqiSmNM1x-98">
          <mxGeometry relative="1" as="geometry" />
        </mxCell>
        <mxCell id="gToxaZRA3JzeqiSmNM1x-96" value="Wi-Fi initialization" style="rounded=1;whiteSpace=wrap;html=1;absoluteArcSize=1;arcSize=14;strokeWidth=2;fillColor=#fff2cc;strokeColor=default;" vertex="1" parent="1">
          <mxGeometry x="1680" y="1740" width="80" height="30" as="geometry" />
        </mxCell>
        <mxCell id="gToxaZRA3JzeqiSmNM1x-101" style="edgeStyle=orthogonalEdgeStyle;rounded=0;orthogonalLoop=1;jettySize=auto;html=1;exitX=1;exitY=0.5;exitDx=0;exitDy=0;exitPerimeter=0;entryX=0.5;entryY=0;entryDx=0;entryDy=0;" edge="1" parent="1" source="gToxaZRA3JzeqiSmNM1x-98" target="gToxaZRA3JzeqiSmNM1x-100">
          <mxGeometry relative="1" as="geometry" />
        </mxCell>
        <mxCell id="gToxaZRA3JzeqiSmNM1x-109" style="edgeStyle=orthogonalEdgeStyle;rounded=0;orthogonalLoop=1;jettySize=auto;html=1;exitX=0;exitY=0.5;exitDx=0;exitDy=0;exitPerimeter=0;entryX=0.5;entryY=0;entryDx=0;entryDy=0;entryPerimeter=0;" edge="1" parent="1" source="gToxaZRA3JzeqiSmNM1x-98" target="gToxaZRA3JzeqiSmNM1x-108">
          <mxGeometry relative="1" as="geometry" />
        </mxCell>
        <mxCell id="gToxaZRA3JzeqiSmNM1x-98" value="Is provisioned" style="strokeWidth=2;html=1;shape=mxgraph.flowchart.decision;whiteSpace=wrap;fillColor=#fff2cc;strokeColor=default;" vertex="1" parent="1">
          <mxGeometry x="1670" y="1790" width="100" height="50" as="geometry" />
        </mxCell>
        <mxCell id="gToxaZRA3JzeqiSmNM1x-162" style="edgeStyle=orthogonalEdgeStyle;rounded=0;orthogonalLoop=1;jettySize=auto;html=1;exitX=0.5;exitY=1;exitDx=0;exitDy=0;entryX=0.5;entryY=0;entryDx=0;entryDy=0;" edge="1" parent="1" source="gToxaZRA3JzeqiSmNM1x-100" target="gToxaZRA3JzeqiSmNM1x-159">
          <mxGeometry relative="1" as="geometry" />
        </mxCell>
        <mxCell id="gToxaZRA3JzeqiSmNM1x-100" value="Wi-Fi provisioning initialization" style="rounded=1;whiteSpace=wrap;html=1;absoluteArcSize=1;arcSize=14;strokeWidth=2;fillColor=#fff2cc;strokeColor=default;" vertex="1" parent="1">
          <mxGeometry x="1780" y="1835" width="100" height="30" as="geometry" />
        </mxCell>
        <mxCell id="gToxaZRA3JzeqiSmNM1x-142" style="edgeStyle=orthogonalEdgeStyle;rounded=0;orthogonalLoop=1;jettySize=auto;html=1;exitX=1;exitY=0.5;exitDx=0;exitDy=0;exitPerimeter=0;entryX=0.5;entryY=0;entryDx=0;entryDy=0;" edge="1" parent="1" source="gToxaZRA3JzeqiSmNM1x-108" target="gToxaZRA3JzeqiSmNM1x-110">
          <mxGeometry relative="1" as="geometry" />
        </mxCell>
        <mxCell id="gToxaZRA3JzeqiSmNM1x-143" style="edgeStyle=orthogonalEdgeStyle;rounded=0;orthogonalLoop=1;jettySize=auto;html=1;exitX=0;exitY=0.5;exitDx=0;exitDy=0;exitPerimeter=0;entryX=0.5;entryY=0;entryDx=0;entryDy=0;" edge="1" parent="1" source="gToxaZRA3JzeqiSmNM1x-108" target="gToxaZRA3JzeqiSmNM1x-111">
          <mxGeometry relative="1" as="geometry" />
        </mxCell>
        <mxCell id="gToxaZRA3JzeqiSmNM1x-108" value="Wake up&lt;br&gt;ULP" style="strokeWidth=2;html=1;shape=mxgraph.flowchart.decision;whiteSpace=wrap;fillColor=#fff2cc;strokeColor=default;" vertex="1" parent="1">
          <mxGeometry x="1580" y="1835" width="90" height="50" as="geometry" />
        </mxCell>
        <mxCell id="gToxaZRA3JzeqiSmNM1x-152" style="edgeStyle=orthogonalEdgeStyle;rounded=0;orthogonalLoop=1;jettySize=auto;html=1;exitX=0.5;exitY=1;exitDx=0;exitDy=0;entryX=0.5;entryY=0;entryDx=0;entryDy=0;" edge="1" parent="1" source="gToxaZRA3JzeqiSmNM1x-110" target="gToxaZRA3JzeqiSmNM1x-151">
          <mxGeometry relative="1" as="geometry" />
        </mxCell>
        <mxCell id="gToxaZRA3JzeqiSmNM1x-110" value="ULP intialization" style="rounded=1;whiteSpace=wrap;html=1;absoluteArcSize=1;arcSize=14;strokeWidth=2;fillColor=#fff2cc;strokeColor=default;" vertex="1" parent="1">
          <mxGeometry x="1680" y="1880" width="80" height="30" as="geometry" />
        </mxCell>
        <mxCell id="gToxaZRA3JzeqiSmNM1x-120" style="edgeStyle=orthogonalEdgeStyle;rounded=0;orthogonalLoop=1;jettySize=auto;html=1;exitX=0.5;exitY=1;exitDx=0;exitDy=0;entryX=0.5;entryY=0;entryDx=0;entryDy=0;" edge="1" parent="1" source="gToxaZRA3JzeqiSmNM1x-111" target="gToxaZRA3JzeqiSmNM1x-119">
          <mxGeometry relative="1" as="geometry" />
        </mxCell>
        <mxCell id="gToxaZRA3JzeqiSmNM1x-111" value="MQTT initialization" style="rounded=1;whiteSpace=wrap;html=1;absoluteArcSize=1;arcSize=14;strokeWidth=2;fillColor=#fff2cc;strokeColor=default;" vertex="1" parent="1">
          <mxGeometry x="1490" y="1880" width="80" height="30" as="geometry" />
        </mxCell>
        <mxCell id="gToxaZRA3JzeqiSmNM1x-124" style="edgeStyle=orthogonalEdgeStyle;rounded=0;orthogonalLoop=1;jettySize=auto;html=1;exitX=0.5;exitY=1;exitDx=0;exitDy=0;entryX=0.5;entryY=0;entryDx=0;entryDy=0;entryPerimeter=0;" edge="1" parent="1" source="gToxaZRA3JzeqiSmNM1x-119" target="gToxaZRA3JzeqiSmNM1x-123">
          <mxGeometry relative="1" as="geometry" />
        </mxCell>
        <mxCell id="gToxaZRA3JzeqiSmNM1x-119" value="Face detection task" style="rounded=1;whiteSpace=wrap;html=1;absoluteArcSize=1;arcSize=14;strokeWidth=2;fillColor=#fff2cc;strokeColor=default;" vertex="1" parent="1">
          <mxGeometry x="1490" y="1930" width="80" height="30" as="geometry" />
        </mxCell>
        <mxCell id="gToxaZRA3JzeqiSmNM1x-147" style="edgeStyle=orthogonalEdgeStyle;rounded=0;orthogonalLoop=1;jettySize=auto;html=1;exitX=1;exitY=0.5;exitDx=0;exitDy=0;exitPerimeter=0;entryX=0.5;entryY=0;entryDx=0;entryDy=0;" edge="1" parent="1" source="gToxaZRA3JzeqiSmNM1x-123" target="gToxaZRA3JzeqiSmNM1x-125">
          <mxGeometry relative="1" as="geometry" />
        </mxCell>
        <mxCell id="gToxaZRA3JzeqiSmNM1x-148" style="edgeStyle=orthogonalEdgeStyle;rounded=0;orthogonalLoop=1;jettySize=auto;html=1;exitX=0;exitY=0.5;exitDx=0;exitDy=0;exitPerimeter=0;entryX=0.5;entryY=0;entryDx=0;entryDy=0;" edge="1" parent="1" source="gToxaZRA3JzeqiSmNM1x-123" target="gToxaZRA3JzeqiSmNM1x-144">
          <mxGeometry relative="1" as="geometry">
            <Array as="points">
              <mxPoint x="1470" y="2000" />
              <mxPoint x="1470" y="2060" />
              <mxPoint x="1605" y="2060" />
            </Array>
          </mxGeometry>
        </mxCell>
        <mxCell id="gToxaZRA3JzeqiSmNM1x-123" value="faces &amp;gt; 0" style="strokeWidth=2;html=1;shape=mxgraph.flowchart.decision;whiteSpace=wrap;fillColor=#fff2cc;strokeColor=default;" vertex="1" parent="1">
          <mxGeometry x="1495" y="1980" width="70" height="40" as="geometry" />
        </mxCell>
        <mxCell id="gToxaZRA3JzeqiSmNM1x-145" style="edgeStyle=orthogonalEdgeStyle;rounded=0;orthogonalLoop=1;jettySize=auto;html=1;exitX=0.5;exitY=1;exitDx=0;exitDy=0;entryX=0.5;entryY=0;entryDx=0;entryDy=0;" edge="1" parent="1" source="gToxaZRA3JzeqiSmNM1x-125" target="gToxaZRA3JzeqiSmNM1x-144">
          <mxGeometry relative="1" as="geometry" />
        </mxCell>
        <mxCell id="gToxaZRA3JzeqiSmNM1x-125" value="MQTT send data" style="rounded=1;whiteSpace=wrap;html=1;absoluteArcSize=1;arcSize=14;strokeWidth=2;fillColor=#fff2cc;strokeColor=default;" vertex="1" parent="1">
          <mxGeometry x="1565" y="2020" width="80" height="30" as="geometry" />
        </mxCell>
        <mxCell id="gToxaZRA3JzeqiSmNM1x-150" style="edgeStyle=orthogonalEdgeStyle;rounded=0;orthogonalLoop=1;jettySize=auto;html=1;exitX=0.5;exitY=1;exitDx=0;exitDy=0;entryX=0.5;entryY=0;entryDx=0;entryDy=0;" edge="1" parent="1" source="gToxaZRA3JzeqiSmNM1x-144" target="gToxaZRA3JzeqiSmNM1x-149">
          <mxGeometry relative="1" as="geometry" />
        </mxCell>
        <mxCell id="gToxaZRA3JzeqiSmNM1x-144" value="Components deinitialization" style="rounded=1;whiteSpace=wrap;html=1;absoluteArcSize=1;arcSize=14;strokeWidth=2;fillColor=#fff2cc;strokeColor=default;" vertex="1" parent="1">
          <mxGeometry x="1565" y="2080" width="80" height="30" as="geometry" />
        </mxCell>
        <mxCell id="gToxaZRA3JzeqiSmNM1x-155" style="edgeStyle=orthogonalEdgeStyle;rounded=0;orthogonalLoop=1;jettySize=auto;html=1;entryX=0.5;entryY=0;entryDx=0;entryDy=0;" edge="1" parent="1" source="gToxaZRA3JzeqiSmNM1x-149" target="gToxaZRA3JzeqiSmNM1x-154">
          <mxGeometry relative="1" as="geometry" />
        </mxCell>
        <mxCell id="gToxaZRA3JzeqiSmNM1x-149" value="Power domain setting" style="rounded=1;whiteSpace=wrap;html=1;absoluteArcSize=1;arcSize=14;strokeWidth=2;fillColor=#fff2cc;strokeColor=default;" vertex="1" parent="1">
          <mxGeometry x="1565" y="2130" width="80" height="30" as="geometry" />
        </mxCell>
        <mxCell id="gToxaZRA3JzeqiSmNM1x-153" style="edgeStyle=orthogonalEdgeStyle;rounded=0;orthogonalLoop=1;jettySize=auto;html=1;exitX=0.5;exitY=1;exitDx=0;exitDy=0;entryX=0.5;entryY=0;entryDx=0;entryDy=0;" edge="1" parent="1" source="gToxaZRA3JzeqiSmNM1x-151" target="gToxaZRA3JzeqiSmNM1x-144">
          <mxGeometry relative="1" as="geometry">
            <Array as="points">
              <mxPoint x="1720" y="2060" />
              <mxPoint x="1605" y="2060" />
            </Array>
          </mxGeometry>
        </mxCell>
        <mxCell id="gToxaZRA3JzeqiSmNM1x-151" value="Interrupt GPIO initialization" style="rounded=1;whiteSpace=wrap;html=1;absoluteArcSize=1;arcSize=14;strokeWidth=2;fillColor=#fff2cc;strokeColor=default;" vertex="1" parent="1">
          <mxGeometry x="1675" y="1930" width="90" height="30" as="geometry" />
        </mxCell>
        <mxCell id="gToxaZRA3JzeqiSmNM1x-157" style="edgeStyle=orthogonalEdgeStyle;rounded=0;orthogonalLoop=1;jettySize=auto;html=1;exitX=0.5;exitY=1;exitDx=0;exitDy=0;entryX=0.5;entryY=0;entryDx=0;entryDy=0;entryPerimeter=0;" edge="1" parent="1" source="gToxaZRA3JzeqiSmNM1x-154" target="gToxaZRA3JzeqiSmNM1x-156">
          <mxGeometry relative="1" as="geometry" />
        </mxCell>
        <mxCell id="gToxaZRA3JzeqiSmNM1x-154" value="Deep sleep start" style="rounded=1;whiteSpace=wrap;html=1;absoluteArcSize=1;arcSize=14;strokeWidth=2;fillColor=#fff2cc;strokeColor=default;" vertex="1" parent="1">
          <mxGeometry x="1565" y="2180" width="80" height="30" as="geometry" />
        </mxCell>
        <mxCell id="gToxaZRA3JzeqiSmNM1x-156" value="End" style="strokeWidth=2;html=1;shape=mxgraph.flowchart.terminator;whiteSpace=wrap;fillColor=#fff2cc;strokeColor=default;" vertex="1" parent="1">
          <mxGeometry x="1700" y="2250" width="40" height="20" as="geometry" />
        </mxCell>
        <mxCell id="gToxaZRA3JzeqiSmNM1x-161" style="edgeStyle=orthogonalEdgeStyle;rounded=0;orthogonalLoop=1;jettySize=auto;html=1;exitX=0.5;exitY=1;exitDx=0;exitDy=0;entryX=0.5;entryY=0;entryDx=0;entryDy=0;entryPerimeter=0;" edge="1" parent="1" source="gToxaZRA3JzeqiSmNM1x-159" target="gToxaZRA3JzeqiSmNM1x-156">
          <mxGeometry relative="1" as="geometry">
            <Array as="points">
              <mxPoint x="1830" y="2230" />
              <mxPoint x="1720" y="2230" />
            </Array>
          </mxGeometry>
        </mxCell>
        <mxCell id="gToxaZRA3JzeqiSmNM1x-159" value="Reset device" style="rounded=1;whiteSpace=wrap;html=1;absoluteArcSize=1;arcSize=14;strokeWidth=2;fillColor=#fff2cc;strokeColor=default;" vertex="1" parent="1">
          <mxGeometry x="1780" y="1880" width="100" height="30" as="geometry" />
        </mxCell>
        <mxCell id="gToxaZRA3JzeqiSmNM1x-164" value="true" style="text;html=1;strokeColor=none;fillColor=none;align=center;verticalAlign=middle;whiteSpace=wrap;rounded=0;" vertex="1" parent="1">
          <mxGeometry x="1565" y="1988" width="30" height="10" as="geometry" />
        </mxCell>
        <mxCell id="gToxaZRA3JzeqiSmNM1x-165" value="true" style="text;html=1;strokeColor=none;fillColor=none;align=center;verticalAlign=middle;whiteSpace=wrap;rounded=0;" vertex="1" parent="1">
          <mxGeometry x="1550" y="1848" width="30" height="10" as="geometry" />
        </mxCell>
        <mxCell id="gToxaZRA3JzeqiSmNM1x-166" value="true" style="text;html=1;strokeColor=none;fillColor=none;align=center;verticalAlign=middle;whiteSpace=wrap;rounded=0;" vertex="1" parent="1">
          <mxGeometry x="1640" y="1803" width="30" height="10" as="geometry" />
        </mxCell>
        <mxCell id="gToxaZRA3JzeqiSmNM1x-167" value="false" style="text;html=1;strokeColor=none;fillColor=none;align=center;verticalAlign=middle;whiteSpace=wrap;rounded=0;" vertex="1" parent="1">
          <mxGeometry x="1770" y="1803" width="30" height="10" as="geometry" />
        </mxCell>
        <mxCell id="gToxaZRA3JzeqiSmNM1x-168" value="false" style="text;html=1;strokeColor=none;fillColor=none;align=center;verticalAlign=middle;whiteSpace=wrap;rounded=0;" vertex="1" parent="1">
          <mxGeometry x="1670" y="1848" width="30" height="10" as="geometry" />
        </mxCell>
        <mxCell id="gToxaZRA3JzeqiSmNM1x-169" value="false" style="text;html=1;strokeColor=none;fillColor=none;align=center;verticalAlign=middle;whiteSpace=wrap;rounded=0;" vertex="1" parent="1">
          <mxGeometry x="1465" y="1988" width="30" height="10" as="geometry" />
        </mxCell>
      </root>
    </mxGraphModel>
  </diagram>
</mxfile>
